<?xml version="1.0" encoding="utf-8"?>
<!-- Generator: Adobe Illustrator 27.5.0, SVG Export Plug-In . SVG Version: 6.00 Build 0)  -->
<svg version="1.1" xmlns="http://www.w3.org/2000/svg" xmlns:xlink="http://www.w3.org/1999/xlink" x="0px" y="0px"
	 viewBox="0 0 500 500" style="enable-background:new 0 0 500 500;" xml:space="preserve">
<g id="Floor">
	<ellipse id="Floor_8_" style="fill:#F0F0F0;" cx="250.169" cy="346.974" rx="235.608" ry="136.029"/>
</g>
<g id="Shadows">
	<path id="Shadow_3_" style="fill:#E0E0E0;" d="M71.239,395.411l-40.64-23.464c-2.291-1.323-2.291-3.468,0-4.791l236.389-136.479
		c2.291-1.323,6.006-1.323,8.298,0l40.642,23.463c2.291,1.323,2.291,3.468,0,4.79L79.537,395.411
		C77.245,396.734,73.531,396.734,71.239,395.411z"/>
	<polygon id="Shadow" style="fill:#E0E0E0;" points="245.93,405.119 148.326,348.768 270.302,278.477 367.79,334.763 	"/>
	<ellipse id="Shadow_9_" style="fill:#E0E0E0;" cx="380.689" cy="403.606" rx="46.143" ry="26.641"/>
	<path id="Shadow_10_" style="fill:#E0E0E0;" d="M442.6,371.528c5.002,2.888,5.002,7.57,0,10.457
		c-5.002,2.888-13.111,2.888-18.113,0c-5.002-2.888-5.002-7.57,0-10.458C429.489,368.64,437.599,368.64,442.6,371.528z"/>
</g>
<g id="Device">
	<g id="Device_1_">
		<g id="XMLID_1341_">
			<g id="XMLID_1346_">
				<path id="XMLID_1347_" style="fill:#27DEBF;" d="M217.32,353.593l34.937-20.201c3.601-2.079,5.401-4.804,5.402-7.529
					c0-2.725,0.015-4.86,0.015-4.86l-36.249-20.44c-1.921-1.109-3.478-3.806-3.478-6.024v-43.075l-61.023,35.262l-0.002,43.074
					c0,2.218,1.557,4.915,3.478,6.024l30.836,17.768C198.44,357.752,210.118,357.752,217.32,353.593z"/>
			</g>
			<g id="XMLID_1608_" style="opacity:0.6;">
				<path id="XMLID_1609_" d="M217.32,353.593l34.937-20.201c3.601-2.079,5.401-4.804,5.402-7.529c0-2.725,0.015-4.86,0.015-4.86
					l-36.249-20.44c-1.921-1.109-3.478-3.806-3.478-6.024v-43.075l-61.023,35.262l-0.002,43.074c0,2.218,1.557,4.915,3.478,6.024
					l30.836,17.768C198.44,357.752,210.118,357.752,217.32,353.593z"/>
			</g>
			<path id="XMLID_1345_" style="opacity:0.3;" d="M171.575,337.429v4.839l-11.184-6.445c-1.908-1.104-3.474-3.795-3.474-6.024
				v-43.07l11.626-6.707c0.241,2.952,0.502,6.004,0.743,8.976l-8.152,4.719v33.653c0,2.229,1.546,4.919,3.474,6.024L171.575,337.429
				z"/>
			<path id="XMLID_1344_" style="fill:#27DEBF;" d="M161.133,327.377c0,2.218,1.557,4.915,3.478,6.024l26.622,15.335
				c7.203,4.158,18.882,4.16,26.085,0.003l34.955-20.199c7.204-4.157,7.205-10.898,0.002-15.057l-26.639-15.345
				c-1.921-1.109-3.478-3.806-3.478-6.024l-0.001-33.657l-61.024,35.262V327.377z"/>
			<path id="XMLID_1607_" style="opacity:0.3;" d="M161.133,327.377c0,2.218,1.557,4.915,3.478,6.024l26.622,15.335
				c7.203,4.158,18.882,4.16,26.085,0.003l34.955-20.199c7.204-4.157,7.205-10.898,0.002-15.057l-26.639-15.345
				c-1.921-1.109-3.478-3.806-3.478-6.024l-0.001-33.657l-61.024,35.262V327.377z"/>
			<path id="XMLID_1343_" style="opacity:0.5;" d="M232.719,302.232v-0.005l-7.084-4.09c-1.921-1.109-3.478-3.806-3.478-6.024
				l0-33.657l-61.025,35.262v33.659c0,2.218,1.557,4.915,3.478,6.024l6.961,4.019L232.719,302.232z"/>
			<path id="XMLID_1342_" style="fill:#27DEBF;" d="M257.668,321.007c0,0,0,2.128,0,4.859c0,2.731-1.807,5.441-5.401,7.53
				l-34.943,20.189c-3.454,2.008-7.931,3.012-12.449,3.092v-4.839c4.518-0.06,8.995-1.104,12.449-3.092l34.943-20.21
				C255.861,326.469,257.668,323.738,257.668,321.007z"/>
			<path id="XMLID_1610_" style="opacity:0.5;" d="M257.668,321.007c0,0,0,2.128,0,4.859c0,2.731-1.807,5.441-5.401,7.53
				l-34.943,20.189c-3.454,2.008-7.931,3.012-12.449,3.092v-4.839c4.518-0.06,8.995-1.104,12.449-3.092l34.943-20.21
				C255.861,326.469,257.668,323.738,257.668,321.007z"/>
		</g>
		<path id="XMLID_1340_" style="fill:#27DEBF;" d="M63.151,369.212c2.252,1.3,6.025,1.23,8.426-0.156
			c30.001-17.321,206-118.932,235.997-136.25c2.401-1.386,4.346-4.757,4.346-7.529V34.363c0-2.772-1.826-6.074-4.078-7.374
			c-2.252-1.3-6.024-1.231-8.425,0.156L63.423,163.395c-2.401,1.386-4.347,4.757-4.347,7.53l-0.003,190.913
			C59.073,364.61,60.899,367.912,63.151,369.212z"/>
		<path id="XMLID_1339_" style="fill:#27DEBF;" d="M71.578,369.051l235.996-136.249c2.401-1.386,4.347-4.757,4.347-7.53V34.358
			c0-2.772-1.946-3.896-4.347-2.51L71.581,168.098c-2.401,1.386-4.347,4.757-4.347,7.53l-0.003,190.913
			C67.231,369.313,69.177,370.437,71.578,369.051z"/>
		<path id="XMLID_1338_" style="opacity:0.5;" d="M71.578,369.051l235.996-136.249c2.401-1.386,4.347-4.757,4.347-7.53V34.358
			c0-2.772-1.946-3.896-4.347-2.51L71.581,168.098c-2.401,1.386-4.347,4.757-4.347,7.53l-0.003,190.913
			C67.231,369.313,69.177,370.437,71.578,369.051z"/>
		<path id="XMLID_1337_" style="fill:#27DEBF;" d="M70.938,374.013c-2.409,1.064-5.742,1.024-7.791-0.161
			c-2.249-1.305-4.076-4.598-4.076-7.389V349.08l8.152,4.719v17.383C67.224,373.712,68.83,374.857,70.938,374.013z"/>
		<path id="XMLID_1606_" style="opacity:0.5;" d="M70.938,374.013c-2.409,1.064-5.742,1.024-7.791-0.161
			c-2.249-1.305-4.076-4.598-4.076-7.389V349.08l8.152,4.719v17.383C67.224,373.712,68.83,374.857,70.938,374.013z"/>
		<path id="XMLID_1336_" style="fill:#27DEBF;" d="M67.224,353.799l0.007,17.377c0,2.772,1.947,3.896,4.347,2.51l235.996-136.249
			c2.401-1.386,4.347-4.757,4.347-7.53v-17.414L67.224,353.799z"/>
		<path id="XMLID_1335_" style="opacity:0.3;" d="M67.231,353.762l0,17.413c0,2.772,1.947,3.896,4.347,2.51l235.996-136.249
			c2.401-1.386,4.347-4.757,4.347-7.53v-17.414L67.231,353.762z"/>
		<path id="XMLID_1334_" style="fill:#27DEBF;" d="M75.385,331.99l0.002-153.655c0-1.663,1.168-3.686,2.608-4.518L301.151,44.978
			c1.441-0.832,2.609-0.157,2.609,1.506l0.007,153.659c0,1.663-1.168,3.686-2.608,4.518L77.993,333.496
			C76.553,334.328,75.385,333.654,75.385,331.99z"/>
		<path id="XMLID_1333_" style="fill:#263238;" d="M75.385,331.99l0.002-153.655c0-1.663,1.168-3.686,2.608-4.518L301.151,44.978
			c1.441-0.832,2.609-0.157,2.609,1.506l0.007,153.659c0,1.663-1.168,3.686-2.608,4.518L77.993,333.496
			C76.553,334.328,75.385,333.654,75.385,331.99z"/>
		<path id="XMLID_1331_" style="opacity:0.7;" d="M68.509,171.327c-0.783,1.365-1.265,2.911-1.285,4.297v178.175l-8.152-4.719
			l0.005-178.155c0-1.385,0.497-2.931,1.28-4.296L68.509,171.327z"/>
		<path id="XMLID_1544_" style="opacity:0.3;" d="M311.876,33.644c-0.308-2.241-2.118-3.053-4.308-1.799L71.58,168.102
			c-1.193,0.689-2.272,1.861-3.074,3.228l-8.153-4.708c0.792-1.347,1.871-2.539,3.074-3.228L299.417,27.146
			c2.406-1.388,6.168-1.46,8.43-0.154C309.902,28.174,311.599,31.043,311.876,33.644z"/>
	</g>
</g>
<g id="Window_1_">
	<g id="Window">
		<path id="XMLID_16497_" style="fill:#27DEBF;" d="M93.607,207.749c-1.121-0.648-2.031-2.292-2.031-3.673l-0.003-16.901
			c0-1.381,0.972-3.06,2.168-3.75L315.87,55.165c1.196-0.69,3.074-0.725,4.196-0.077c1.122,0.648,2.031,2.292,2.027,3.671
			l0.002,16.903c0.004,1.382-0.966,3.059-2.161,3.749L97.802,207.67C96.606,208.36,94.729,208.396,93.607,207.749z"/>
		<path id="XMLID_16385_" style="opacity:0.4;fill:#FFFFFF;" d="M322.072,58.408c-0.15-1.12-1.06-1.53-2.14-0.9L97.802,185.766
			c-0.59,0.35-1.13,0.94-1.53,1.62l-4.06-2.35c0.4-0.68,0.93-1.262,1.53-1.612L315.872,55.167c1.19-0.69,3.07-0.73,4.19-0.08
			C321.092,55.688,321.942,57.107,322.072,58.408z"/>
		<path id="XMLID_15230_" style="fill:#F0F0F0;" d="M97.802,345.244c-0.03,0.01-0.55,0.402-1.701,0.516
			c-0.891,0.088-1.82-0.047-2.49-0.437c-1.13-0.65-2.03-2.29-2.03-3.67l-0.01-128.836l4.07,2.35v128.826
			c0,0.98,0.492,1.547,1.202,1.547C96.944,345.539,97.331,345.508,97.802,345.244z"/>
		<path id="XMLID_15482_" style="opacity:0.1;" d="M96.271,187.387c-0.39,0.67-0.63,1.44-0.63,2.13v25.65l-4.07-2.35l0.002-25.642
			c0-0.09,0.004-0.171,0.011-0.261c0.017-0.203,0.043-0.357,0.084-0.537c0.11-0.45,0.295-0.928,0.543-1.34L96.271,187.387z"/>
		<path id="XMLID_16406_" style="fill:#27DEBF;" d="M322.092,58.757l0.002,11.57l-159.302,91.989c-1.19,0.69-2.16,0.13-2.16-1.25
			v-4.38c0-1.38-0.97-1.94-2.17-1.25l-52.53,30.33c-1.2,0.69-2.17,2.37-2.17,3.75v4.38c0,1.38-0.97,3.06-2.16,3.75l-5.96,3.44
			v-11.57c0-1.38,0.97-3.06,2.16-3.75L319.932,57.507C321.122,56.818,322.092,57.377,322.092,58.757z"/>
		<g id="XMLID_705_">
			<g id="XMLID_16408_">
				<path style="fill:#FAFAFA;" d="M96.84,345.039c-0.63,0-0.698-0.732-0.698-1.046V201.375l5.71-3.295
					c0.697-0.404,1.263-2.205,2.387-6.217c0.592-2.114,1.488-5.31,1.952-5.668l51.574-29.778c0.44,0.23,1.41,1.936,1.997,2.969
					c1.261,2.219,2.016,3.474,2.87,3.474c0.146,0,0.285-0.037,0.412-0.111l158.551-91.555v142.04c0,1.204-0.875,2.723-1.91,3.318
					L97.552,344.811C97.294,344.96,97.049,345.039,96.84,345.039z"/>
				<path style="fill:#E0E0E0;" d="M321.094,72.06v12.348v128.826c0,1.029-0.776,2.377-1.661,2.886L97.3,344.379
					c-0.249,0.145-0.405,0.16-0.461,0.16c-0.196,0-0.198-0.524-0.198-0.547V201.664l5.462-3.152
					c0.864-0.501,1.404-2.184,2.617-6.514c0.541-1.93,1.352-4.825,1.79-5.41l51.187-29.555c0.442,0.51,1.168,1.788,1.629,2.6
					c1.392,2.449,2.171,3.727,3.304,3.727c0.232,0,0.461-0.062,0.661-0.178L321.094,72.06 M158.081,156.811h0.005H158.081
					 M106.538,186.552h0.005H106.538 M322.094,70.328l-159.302,91.989c-0.051,0.029-0.105,0.044-0.161,0.044
					c-1.21,0-3.667-6.46-4.885-6.46c-0.057,0-0.111,0.014-0.162,0.044l-51.651,29.823c-1.2,0.69-3.14,11.19-4.33,11.88l-5.96,3.44
					v142.906c0,0.979,0.489,1.547,1.198,1.547c0.29,0,0.617-0.095,0.963-0.295l222.13-128.258c1.2-0.69,2.161-2.372,2.161-3.752
					V84.408V70.328L322.094,70.328z"/>
			</g>
		</g>
		<g id="XMLID_554_">
			<path id="XMLID_704_" style="fill:#F0F0F0;" d="M133.639,263.568l29.603-17.092c0.797-0.46,1.443-0.087,1.443,0.833v49.847
				c0,0.92-0.646,2.039-1.443,2.5l-29.603,17.091c-0.797,0.46-1.443,0.087-1.443-0.833l0-49.846
				C132.195,265.147,132.842,264.028,133.639,263.568z"/>
			<g id="XMLID_680_">
				<path id="XMLID_693_" style="fill:#E0E0E0;" d="M139.053,266.694l18.774-10.839c0.797-0.46,1.443-0.133,1.443,0.73
					c0,0.863-0.646,1.936-1.443,2.397l-18.775,10.839c-0.797,0.46-1.443,0.133-1.443-0.73
					C137.61,268.227,138.256,267.154,139.053,266.694z"/>
				<g id="XMLID_681_">
					<path id="XMLID_692_" style="fill:#27DEBF;" d="M137.609,274.78v1.127c0,0.552,0.388,0.776,0.866,0.5l0.977-0.564
						c0.478-0.276,0.866-0.947,0.866-1.5l0-1.127c0-0.552-0.388-0.776-0.866-0.5l-0.976,0.564
						C137.997,273.556,137.609,274.228,137.609,274.78z"/>
					<path id="XMLID_690_" style="fill:#E0E0E0;" d="M143.025,272.217c0,0.863,0.646,1.19,1.443,0.73l13.359-7.713
						c0.797-0.46,1.443-1.533,1.443-2.396c0-0.863-0.646-1.19-1.443-0.73l-13.359,7.713
						C143.671,270.28,143.025,271.353,143.025,272.217z"/>
					<path id="XMLID_689_" style="fill:#27DEBF;" d="M137.609,281.039v1.127c0,0.552,0.388,0.776,0.866,0.5l0.977-0.564
						c0.478-0.276,0.866-0.948,0.866-1.5l0-1.127c0-0.552-0.388-0.776-0.866-0.5l-0.976,0.564
						C137.997,279.816,137.609,280.487,137.609,281.039z"/>
					<path id="XMLID_686_" style="fill:#E0E0E0;" d="M143.025,278.476c0,0.863,0.646,1.19,1.443,0.73l13.359-7.713
						c0.797-0.46,1.443-1.533,1.443-2.396c0-0.863-0.646-1.19-1.443-0.73l-13.359,7.713
						C143.671,276.54,143.025,277.613,143.025,278.476z"/>
					<path id="XMLID_685_" style="fill:#27DEBF;" d="M137.609,287.288v1.127c0,0.552,0.388,0.776,0.866,0.5l0.977-0.564
						c0.478-0.276,0.866-0.947,0.866-1.5l0-1.127c0-0.552-0.388-0.776-0.866-0.5l-0.976,0.564
						C137.997,286.064,137.609,286.736,137.609,287.288z"/>
					<path id="XMLID_684_" style="fill:#E0E0E0;" d="M143.025,284.725c0,0.863,0.646,1.19,1.443,0.73l13.359-7.713
						c0.797-0.46,1.443-1.533,1.443-2.396c0-0.863-0.646-1.19-1.443-0.73l-13.359,7.713
						C143.671,282.788,143.025,283.861,143.025,284.725z"/>
					<path id="XMLID_683_" style="fill:#27DEBF;" d="M137.609,293.534v1.127c0,0.552,0.388,0.776,0.866,0.5l0.977-0.564
						c0.478-0.276,0.866-0.947,0.866-1.5l0-1.127c0-0.552-0.388-0.776-0.866-0.5l-0.976,0.564
						C137.997,292.31,137.609,292.982,137.609,293.534z"/>
					<path id="XMLID_682_" style="fill:#E0E0E0;" d="M143.025,290.97c0,0.863,0.646,1.19,1.443,0.73l13.359-7.713
						c0.797-0.46,1.443-1.533,1.443-2.396c0-0.863-0.646-1.19-1.443-0.73l-13.359,7.712
						C143.671,289.034,143.025,290.107,143.025,290.97z"/>
				</g>
			</g>
			<g id="XMLID_601_">
				<path id="XMLID_679_" style="fill:#E0E0E0;" d="M138.939,301.147l18.774-10.839c0.797-0.46,1.443-0.133,1.443,0.73
					c0,0.863-0.646,1.936-1.443,2.397l-18.775,10.839c-0.797,0.46-1.443,0.133-1.443-0.73
					C137.495,302.68,138.142,301.607,138.939,301.147z"/>
				<g id="XMLID_602_">
					<path id="XMLID_678_" style="fill:#27DEBF;" d="M137.495,309.233v1.127c0,0.552,0.388,0.776,0.866,0.5l0.977-0.564
						c0.478-0.276,0.866-0.948,0.866-1.5l0-1.127c0-0.552-0.388-0.776-0.866-0.5l-0.976,0.564
						C137.882,308.01,137.495,308.681,137.495,309.233z"/>
					<path id="XMLID_677_" style="fill:#E0E0E0;" d="M142.91,306.67c0,0.863,0.646,1.19,1.443,0.73l13.359-7.713
						c0.797-0.46,1.443-1.533,1.443-2.396c0-0.863-0.646-1.19-1.443-0.73l-13.359,7.712
						C143.556,304.734,142.91,305.807,142.91,306.67z"/>
				</g>
			</g>
		</g>
		<g id="XMLID_16485_">
			<path id="XMLID_16513_" style="fill:#FFFFFF;" d="M311.941,66.013c1.505-0.869,2.724-0.164,2.724,1.573
				c0,1.737-1.22,3.85-2.724,4.719c-1.505,0.869-2.724,0.165-2.724-1.573C309.217,68.995,310.437,66.882,311.941,66.013z"/>
			<path id="XMLID_16512_" style="fill:#FFFFFF;" d="M302.133,71.669c1.505-0.869,2.724-0.164,2.724,1.573s-1.22,3.85-2.724,4.719
				c-1.505,0.869-2.724,0.164-2.724-1.573C299.409,74.65,300.628,72.537,302.133,71.669z"/>
			<path id="XMLID_16511_" style="fill:#FFFFFF;" d="M292.324,77.324c1.505-0.869,2.724-0.164,2.724,1.573
				c0,1.737-1.22,3.85-2.724,4.719c-1.505,0.869-2.724,0.164-2.724-1.573C289.6,80.305,290.82,78.192,292.324,77.324z"/>
		</g>
		<g>
			<path id="XMLID_16384_" style="fill:#E6E6E6;" d="M322.094,70.328v14.08L95.642,215.167v-14.08l4.451-2.578
				c1.19-0.69,1.59-1.739,2.16-3.75l1.509-5.242c0.476-1.82,0.97-3.06,2.17-3.75l51.651-29.823c1.2-0.69,2.136-0.766,3.049,0.743
				l1.852,3.361c0.679,1.174,1.019,1.864,2.209,1.174L322.094,70.328z"/>
			<polygon id="XMLID_15229_" style="fill:#E0E0E0;" points="95.642,201.087 95.642,215.167 91.572,212.816 91.572,198.747 			"/>
		</g>
		<g>
			<path id="XMLID_16490_" style="opacity:0.5;fill:#455A64;" d="M105.573,202.102l-3.399,1.962l1.296-2.492
				c0.114-0.219,0.125-0.491,0.026-0.609c-0.099-0.119-0.272-0.035-0.385,0.183l-1.844,3.547c-0.002,0.004-0.003,0.009-0.005,0.014
				c-0.02,0.041-0.036,0.086-0.049,0.131c-0.005,0.015-0.012,0.028-0.015,0.043c-0.015,0.061-0.024,0.123-0.024,0.183
				c0,0.061,0.009,0.112,0.024,0.156c0.004,0.011,0.011,0.016,0.015,0.026c0.014,0.03,0.029,0.057,0.049,0.074
				c0.002,0.002,0.003,0.006,0.005,0.008l1.844,1.417c0.052,0.04,0.116,0.037,0.18,0c0.076-0.044,0.152-0.136,0.206-0.263
				c0.1-0.233,0.088-0.492-0.026-0.579l-1.296-0.996l3.399-1.962c0.151-0.087,0.273-0.346,0.273-0.579
				S105.724,202.014,105.573,202.102z"/>
			<path id="XMLID_16486_" style="opacity:0.5;fill:#455A64;" d="M108.412,200.462l3.399-1.962l-1.296-0.996
				c-0.114-0.087-0.126-0.347-0.026-0.579c0.099-0.233,0.272-0.349,0.385-0.263l1.844,1.418c0.002,0.002,0.003,0.006,0.005,0.008
				c0.02,0.017,0.036,0.044,0.049,0.074c0.005,0.009,0.011,0.015,0.015,0.026c0.015,0.043,0.024,0.095,0.024,0.156
				c0,0.061-0.009,0.123-0.024,0.183c-0.004,0.015-0.011,0.029-0.015,0.043c-0.014,0.046-0.029,0.09-0.049,0.131
				c-0.002,0.004-0.003,0.009-0.005,0.014l-1.844,3.547c-0.052,0.1-0.116,0.171-0.18,0.208c-0.076,0.044-0.152,0.039-0.206-0.025
				c-0.1-0.118-0.088-0.39,0.026-0.609l1.296-2.492l-3.399,1.962c-0.151,0.087-0.273-0.031-0.273-0.263
				C108.138,200.809,108.261,200.55,108.412,200.462z"/>
			<path id="XMLID_15775_" style="opacity:0.5;fill:#455A64;" d="M119.562,190.675c-0.021-0.205-0.199-0.179-0.29,0.043
				l-0.466,1.138c-0.794-0.086-1.756,0.689-2.405,2.064c-0.842,1.782-0.842,3.891,0,4.701c0.421,0.405,0.974,0.41,1.527,0.09
				c0.553-0.319,1.105-0.962,1.526-1.853c0.107-0.226,0.107-0.493,0-0.595c-0.107-0.103-0.28-0.003-0.387,0.223
				c-0.629,1.329-1.651,1.921-2.28,1.316c-0.629-0.605-0.629-2.18,0-3.51c0.447-0.947,1.091-1.507,1.652-1.541l-0.351,0.858
				c-0.091,0.223-0.008,0.43,0.135,0.337l1.386-0.905c0.097-0.063,0.169-0.24,0.155-0.38L119.562,190.675z"/>
			<path id="XMLID_16043_" style="opacity:0.5;fill:#455A64;" d="M156.092,162.371l1.239-2.623c0.146-0.31,0.146-0.675,0-0.816
				c-0.147-0.141-0.384-0.004-0.53,0.306l-1.239,2.623l-1.239-1.192c-0.146-0.141-0.384-0.004-0.53,0.306
				c-0.146,0.31-0.146,0.675,0,0.816l1.239,1.192l-1.239,2.623c-0.146,0.31-0.146,0.675,0,0.816c0.073,0.07,0.169,0.071,0.265,0.016
				c0.096-0.055,0.192-0.167,0.265-0.322l1.239-2.623l1.239,1.192c0.073,0.07,0.169,0.071,0.265,0.016
				c0.096-0.055,0.192-0.167,0.265-0.322c0.146-0.31,0.146-0.675,0-0.816L156.092,162.371z"/>
			<path id="XMLID_15769_" style="fill:#FAFAFA;" d="M124.072,193.899v-4.381c0-1.381,0.969-3.06,2.165-3.75L307.746,81.012
				c1.196-0.69,2.165-0.131,2.165,1.25l0,4.381c0,1.381-0.969,3.06-2.165,3.75L126.237,195.149
				C125.041,195.84,124.072,195.28,124.072,193.899z"/>
			<path id="XMLID_16161_" style="fill:none;stroke:#E0E0E0;stroke-width:0.75;stroke-miterlimit:10;" d="M306.483,83.327
				l0.569,1.208c0.036,0.076,0.105,0.103,0.185,0.073l1.272-0.488c0.202-0.077,0.282,0.207,0.136,0.481l-0.92,1.727
				c-0.058,0.109-0.085,0.233-0.071,0.331l0.217,1.563c0.035,0.248-0.177,0.575-0.357,0.552l-1.137-0.141
				c-0.072-0.009-0.157,0.041-0.229,0.132l-1.137,1.454c-0.181,0.231-0.392,0.148-0.357-0.14l0.217-1.814
				c0.014-0.114-0.013-0.208-0.071-0.25l-0.92-0.665c-0.146-0.105-0.065-0.483,0.137-0.639l1.271-0.98
				c0.08-0.062,0.15-0.169,0.186-0.287l0.569-1.865C306.132,83.286,306.393,83.135,306.483,83.327z"/>
			<g id="XMLID_15675_" style="opacity:0.5;">
				<g id="XMLID_330_">
					<path id="XMLID_442_" style="fill:#455A64;" d="M312.464,80.478c-0.26,0-0.512-0.134-0.65-0.375
						c-0.207-0.359-0.084-0.817,0.274-1.024l6.093-3.518c0.36-0.207,0.817-0.084,1.025,0.274c0.207,0.359,0.084,0.817-0.275,1.025
						l-6.093,3.518C312.719,80.445,312.591,80.478,312.464,80.478z"/>
				</g>
				<g id="XMLID_299_">
					<path id="XMLID_300_" style="fill:#455A64;" d="M312.464,83.997c-0.26,0-0.512-0.134-0.65-0.375
						c-0.207-0.359-0.084-0.817,0.274-1.024l6.093-3.518c0.36-0.209,0.817-0.084,1.025,0.274c0.207,0.359,0.084,0.817-0.275,1.024
						l-6.093,3.518C312.719,83.964,312.591,83.997,312.464,83.997z"/>
				</g>
				<g id="XMLID_298_">
					<path id="XMLID_440_" style="fill:#455A64;" d="M312.464,87.516c-0.26,0-0.512-0.134-0.65-0.375
						c-0.207-0.359-0.084-0.817,0.274-1.024l6.093-3.518c0.36-0.209,0.817-0.084,1.025,0.274c0.207,0.359,0.084,0.817-0.275,1.024
						l-6.093,3.518C312.719,87.483,312.591,87.516,312.464,87.516z"/>
				</g>
			</g>
		</g>
		<g>
			<polygon style="fill:#455A64;" points="95.642,215.167 95.633,229.227 322.068,98.495 322.094,84.408 			"/>
			<g>
				<g id="XMLID_375_">
					<g id="XMLID_393_">
						<path id="XMLID_425_" style="fill:#FAFAFA;" d="M121.007,206.2l0,2.719c0,0.556,0.394,0.783,0.875,0.505l34.022-19.656l0-4.74
							l-34.022,19.656C121.401,204.962,121.007,205.645,121.007,206.2z"/>
						<path id="XMLID_424_" style="fill:#27DEBF;" d="M160.503,182.373c0.483-0.279,0.875-0.053,0.875,0.505v2.719
							c0,0.558-0.392,1.237-0.875,1.516l-4.598,2.655l0-4.74L160.503,182.373z"/>
						<path id="XMLID_402_" style="fill:#FAFAFA;" d="M160.163,186.101l-0.513-0.16c0.053-0.218,0.082-0.442,0.082-0.661
							c0-0.525-0.17-0.924-0.467-1.095c-0.221-0.127-0.487-0.115-0.748,0.036c-0.575,0.332-1.025,1.268-1.025,2.133
							c0,0.525,0.17,0.924,0.468,1.095c0.101,0.058,0.211,0.087,0.325,0.087c0.137,0,0.28-0.041,0.422-0.123
							c0.345-0.2,0.644-0.619,0.828-1.109l0.514,0.16c0.019,0.006,0.038,0.009,0.057,0.009c0.081,0,0.156-0.052,0.182-0.134
							C160.319,186.239,160.263,186.133,160.163,186.101z M158.517,187.084c-0.142,0.082-0.266,0.095-0.367,0.036
							c-0.171-0.099-0.277-0.392-0.277-0.766c0-0.716,0.382-1.542,0.835-1.804c0.084-0.048,0.161-0.072,0.23-0.072
							c0.049,0,0.095,0.012,0.137,0.036c0.171,0.099,0.277,0.392,0.277,0.766C159.352,185.997,158.969,186.823,158.517,187.084z"/>
					</g>
				</g>
				<path style="fill:#FAFAFA;" d="M115.072,208.631l-2.325,1.342c-0.478,0.276-0.866,0.948-0.866,1.5v2.69
					c0,0.552,0.388,0.776,0.866,0.5l2.325-1.342c0.478-0.276,0.866-0.948,0.866-1.5l0-2.691
					C115.938,208.578,115.55,208.355,115.072,208.631z"/>
				<g>
					<g id="XMLID_1521_">
						<path id="XMLID_1520_" style="fill:#27DEBF;" d="M195.699,160.933c-1.714,0.99-3.103,3.396-3.103,5.376
							c0,1.979,1.39,2.782,3.104,1.792c1.714-0.99,3.105-3.396,3.103-5.376C198.801,160.746,197.412,159.943,195.699,160.933z"/>
						<g id="XMLID_1513_">
							<g id="XMLID_1517_">
								<path id="XMLID_1518_" style="fill:#FFFFFF;" d="M195.337,164.09c-0.099,0-0.192-0.024-0.275-0.072
									c-0.193-0.111-0.299-0.332-0.299-0.621c0-0.529,0.359-1.151,0.817-1.415v-0.001c0.249-0.144,0.493-0.162,0.687-0.051
									c0.193,0.112,0.299,0.332,0.299,0.621c0,0.529-0.359,1.151-0.817,1.415C195.607,164.048,195.467,164.09,195.337,164.09z"/>
							</g>
							<g id="XMLID_1514_">
								<path id="XMLID_1515_" style="fill:#FFFFFF;" d="M196.925,164.296c-0.305-0.177-0.693-0.147-1.092,0.084l-0.451,0.259
									c-0.783,0.453-1.396,1.516-1.396,2.42v0.319c0.442,0.246,1.046,0.204,1.714-0.181c0.667-0.384,1.272-1.041,1.714-1.795
									v-0.077C197.413,164.849,197.236,164.475,196.925,164.296z"/>
							</g>
						</g>
					</g>
					<path style="fill:#E0E0E0;" d="M202.799,158.526l21.255-12.272c0.861-0.497,1.559-0.12,1.559,0.842
						c0,0.962-0.698,2.145-1.559,2.642L202.8,162.01c-0.861,0.497-1.559,0.12-1.559-0.842
						C201.241,160.206,201.938,159.023,202.799,158.526z"/>
					<path style="fill:#E0E0E0;" d="M235.242,139.823l13.184-7.686c0.861-0.497,1.559-0.12,1.559,0.842
						c0,0.962-0.698,2.145-1.558,2.642l-13.184,7.686c-0.861,0.497-1.559,0.12-1.559-0.842
						C233.684,141.503,234.381,140.32,235.242,139.823z"/>
					<path style="fill:#E0E0E0;" d="M259.641,125.804l9.095-5.283c0.861-0.497,1.559-0.12,1.559,0.842
						c0,0.962-0.697,2.145-1.558,2.642l-9.095,5.283c-0.861,0.497-1.559,0.12-1.559-0.842
						C258.083,127.483,258.78,126.301,259.641,125.804z"/>
					<g>
						<path style="fill:#263238;" d="M229.676,147.53c-0.207,0-0.375-0.168-0.375-0.375v-4.69c0-0.207,0.168-0.375,0.375-0.375
							c0.207,0,0.375,0.168,0.375,0.375v4.69C230.051,147.362,229.883,147.53,229.676,147.53z"/>
					</g>
					<g>
						<path style="fill:#263238;" d="M254.048,133.459c-0.207,0-0.375-0.168-0.375-0.375v-4.69c0-0.207,0.168-0.375,0.375-0.375
							c0.207,0,0.375,0.168,0.375,0.375v4.69C254.423,133.291,254.255,133.459,254.048,133.459z"/>
						<path style="fill:#263238;" d="M274.358,121.733c-0.207,0-0.375-0.168-0.375-0.375v-4.69c0-0.207,0.168-0.375,0.375-0.375
							s0.375,0.168,0.375,0.375v4.69C274.733,121.565,274.565,121.733,274.358,121.733z"/>
					</g>
				</g>
				<g>
					<g id="XMLID_1382_">
						<path id="XMLID_1384_" style="fill:#27DEBF;" d="M282.171,114.499v-0.862c0-0.984-0.598-1.436-1.336-1.01l0,0
							c-0.738,0.426-1.336,1.569-1.336,2.553v0.771c0,0.485-0.168,1.036-0.45,1.505c-0.001,0.001-0.001,0.002-0.002,0.003
							c-0.067,0.121-0.109,0.263-0.109,0.394l0,0c0,0.248,0.151,0.362,0.337,0.254l3.121-1.802c0.186-0.107,0.337-0.395,0.337-0.643
							l0,0c0-0.124-0.038-0.214-0.099-0.26c-0.002-0.001-0.003-0.002-0.005-0.003C282.353,115.274,282.171,114.963,282.171,114.499z
							"/>
						<path id="XMLID_1383_" style="fill:#27DEBF;" d="M281.476,117.103c0,0.472-0.287,1.021-0.642,1.226
							c-0.354,0.204-0.642-0.013-0.642-0.485L281.476,117.103z"/>
					</g>
					<g>
						<g id="XMLID_426_">
							<g id="XMLID_448_">
								<path id="XMLID_449_" style="fill:#27DEBF;" d="M287.88,110.719c-0.112,0-0.216-0.027-0.311-0.081
									c-0.218-0.126-0.337-0.375-0.337-0.701c0-0.597,0.405-1.299,0.922-1.597v0c0.281-0.163,0.556-0.183,0.775-0.058
									c0.218,0.126,0.338,0.375,0.338,0.701c0,0.597-0.405,1.299-0.922,1.597C288.185,110.672,288.027,110.719,287.88,110.719z"/>
							</g>
							<g id="XMLID_430_">
								<path id="XMLID_446_" style="fill:#27DEBF;" d="M289.673,110.952c-0.344-0.199-0.782-0.166-1.233,0.095l-0.509,0.292
									c-0.883,0.511-1.576,1.711-1.576,2.731v0.36c0.499,0.277,1.18,0.23,1.934-0.205c0.753-0.433,1.435-1.174,1.934-2.026v-0.087
									C290.223,111.576,290.024,111.154,289.673,110.952z"/>
							</g>
						</g>
						<g id="XMLID_454_">
							<g id="XMLID_608_">
								<path id="XMLID_611_" style="fill:#27DEBF;" d="M290.357,108.404c-0.112,0-0.216-0.027-0.311-0.081
									c-0.218-0.126-0.337-0.375-0.337-0.701c0-0.597,0.405-1.299,0.922-1.597v0c0.281-0.163,0.556-0.183,0.775-0.058
									c0.218,0.126,0.338,0.375,0.338,0.701c0,0.597-0.405,1.299-0.922,1.597C290.662,108.357,290.504,108.404,290.357,108.404z"
									/>
							</g>
							<g id="XMLID_455_">
								<path id="XMLID_460_" style="fill:#27DEBF;" d="M292.152,108.638c-0.35-0.2-0.78-0.17-1.24,0.09l-0.5,0.3
									c-0.55,0.31-1.02,0.89-1.29,1.52c0.4-0.19,0.79-0.2,1.09-0.02c0.35,0.2,0.55,0.62,0.55,1.16v0.08v0.14
									c0.76-0.43,1.44-1.17,1.94-2.02v-0.09C292.702,109.258,292.502,108.838,292.152,108.638z"/>
							</g>
						</g>
					</g>
					<path style="fill:#27DEBF;" d="M298.327,102.237c-1.405,0.811-2.543,2.789-2.543,4.419c0,0.7,0.219,1.208,0.57,1.511
						l-0.319,1.508c-0.041,0.193,0.088,0.272,0.21,0.13l1.144-1.338c0.291-0.034,0.606-0.137,0.938-0.328
						c1.404-0.811,2.543-2.789,2.543-4.419C300.87,102.09,299.731,101.427,298.327,102.237z"/>
					<g>
						<path style="fill:#27DEBF;" d="M310.556,95.117c0.223-0.129,0.433-0.203,0.63-0.221c0.198-0.019,0.369,0.014,0.515,0.099
							c0.145,0.085,0.259,0.218,0.342,0.4c0.084,0.182,0.126,0.41,0.126,0.686c0,0.22-0.023,0.427-0.071,0.621
							c-0.048,0.193-0.109,0.378-0.181,0.555c-0.074,0.178-0.154,0.345-0.242,0.503c-0.087,0.158-0.172,0.313-0.254,0.464
							c-0.082,0.151-0.156,0.303-0.22,0.454c-0.066,0.151-0.112,0.301-0.135,0.45c-0.012,0.074-0.031,0.144-0.057,0.208
							c-0.026,0.064-0.061,0.108-0.104,0.133l-0.729,0.421c-0.045,0.026-0.083,0.023-0.114-0.007
							c-0.032-0.031-0.048-0.08-0.048-0.147c0-0.202,0.027-0.399,0.08-0.589c0.054-0.191,0.121-0.374,0.2-0.552
							c0.08-0.178,0.167-0.349,0.261-0.513c0.093-0.165,0.18-0.32,0.259-0.468c0.08-0.147,0.147-0.288,0.201-0.424
							c0.053-0.136,0.08-0.264,0.08-0.387c0-0.178-0.044-0.292-0.132-0.343c-0.087-0.051-0.222-0.023-0.406,0.083
							c-0.179,0.104-0.307,0.219-0.385,0.347c-0.078,0.127-0.135,0.251-0.17,0.369c-0.036,0.119-0.067,0.227-0.093,0.325
							c-0.026,0.098-0.077,0.168-0.152,0.212l-0.73,0.421c-0.035,0.021-0.066,0.02-0.092-0.002
							c-0.026-0.022-0.039-0.063-0.039-0.125c0.004-0.217,0.044-0.465,0.119-0.745c0.077-0.28,0.184-0.56,0.325-0.841
							c0.143-0.281,0.315-0.545,0.517-0.79C310.061,95.467,310.293,95.269,310.556,95.117z M311.076,101.098
							c0,0.067-0.016,0.135-0.048,0.202c-0.031,0.067-0.07,0.114-0.113,0.139l-0.753,0.435c-0.044,0.025-0.082,0.022-0.113-0.008
							c-0.032-0.03-0.048-0.079-0.048-0.147v-0.929c0-0.067,0.016-0.135,0.048-0.203c0.031-0.067,0.069-0.113,0.113-0.139
							l0.753-0.435c0.043-0.025,0.082-0.023,0.113,0.008c0.033,0.031,0.048,0.08,0.048,0.147V101.098z"/>
					</g>
				</g>
			</g>
		</g>
		<g>
			<g id="XMLID_331_">
				<path id="XMLID_354_" style="fill:#27DEBF;" d="M132.192,215.324v41.892c0,1.381,0.969,1.94,2.165,1.25l149.021-86.057
					c1.196-0.69,2.165-2.369,2.165-3.75l0-41.893c0-1.381-0.969-1.94-2.165-1.25l-149.02,86.058
					C133.162,212.264,132.192,213.943,132.192,215.324z"/>
				<path id="XMLID_723_" style="opacity:0.7;fill:#FFFFFF;" d="M132.192,215.324v41.892c0,1.381,0.969,1.94,2.165,1.25
					l149.021-86.057c1.196-0.69,2.165-2.369,2.165-3.75l0-41.893c0-1.381-0.969-1.94-2.165-1.25l-149.02,86.058
					C133.162,212.264,132.192,213.943,132.192,215.324z"/>
			</g>
			<g id="XMLID_475_">
				<path id="XMLID_721_" style="fill:#27DEBF;" d="M144.376,221.424c-4.486,2.592-8.124,8.891-8.124,14.073
					c0.001,5.181,3.638,7.281,8.125,4.691c4.487-2.591,8.128-8.891,8.124-14.073C152.497,220.934,148.859,218.834,144.376,221.424z"
					/>
				<g id="XMLID_613_">
					<g id="XMLID_707_">
						<path id="XMLID_708_" style="fill:#FFFFFF;" d="M143.428,229.688c-0.26,0-0.502-0.062-0.721-0.188
							c-0.505-0.292-0.783-0.869-0.783-1.625c0-1.384,0.939-3.012,2.139-3.705v-0.001c0.652-0.378,1.29-0.426,1.798-0.134
							c0.505,0.292,0.783,0.869,0.783,1.626c0,1.384-0.939,3.012-2.138,3.705C144.135,229.579,143.768,229.688,143.428,229.688z"/>
					</g>
					<g id="XMLID_674_">
						<path id="XMLID_675_" style="fill:#FFFFFF;" d="M147.586,230.227c-0.798-0.462-1.813-0.384-2.86,0.22l-1.18,0.679
							c-2.049,1.186-3.655,3.969-3.655,6.334v0.835c1.157,0.643,2.737,0.533,4.486-0.475c1.745-1.005,3.329-2.724,4.486-4.699
							v-0.202C148.863,231.675,148.4,230.696,147.586,230.227z"/>
					</g>
				</g>
			</g>
			<g>
				<path style="fill:#455A64;" d="M158.123,219.715l17.207-9.935c0.861-0.497,1.559-0.184,1.559,0.698s-0.698,2.001-1.559,2.498
					l-17.208,9.938c-0.861,0.497-1.559,0.184-1.559-0.7C156.564,221.331,157.262,220.212,158.123,219.715z"/>
				<path style="fill:#455A64;" d="M157.48,226.367l10.117-5.842c0.506-0.292,0.917-0.108,0.917,0.411
					c0,0.519-0.41,1.177-0.916,1.469l-10.118,5.843c-0.506,0.292-0.917,0.108-0.916-0.411
					C156.564,227.317,156.974,226.659,157.48,226.367z"/>
			</g>
			<path style="fill:#F5F5F5;" d="M134.357,258.524l149.021-86.057c1.196-0.69,2.165-2.369,2.165-3.75v-6.863l-153.351,88.537v6.882
				C132.192,258.655,133.161,259.215,134.357,258.524z"/>
			<g>
				<path style="fill:#EBEBEB;" d="M172.811,234.293c-0.207,0-0.375-0.168-0.375-0.375v-4.691c0-0.207,0.168-0.375,0.375-0.375
					c0.207,0,0.375,0.168,0.375,0.375v4.691C173.186,234.125,173.018,234.293,172.811,234.293z"/>
				<path style="fill:#E0E0E0;" d="M154.638,240.47l13.184-7.686c0.861-0.497,1.559-0.12,1.559,0.842
					c0,0.962-0.697,2.145-1.559,2.642l-13.184,7.686c-0.861,0.497-1.559,0.12-1.559-0.842
					C153.08,242.15,153.777,240.967,154.638,240.47z"/>
				<path style="fill:#EBEBEB;" d="M196.62,220.458c-0.207,0-0.375-0.168-0.375-0.375v-4.69c0-0.207,0.168-0.375,0.375-0.375
					c0.207,0,0.375,0.168,0.375,0.375v4.69C196.995,220.29,196.827,220.458,196.62,220.458z"/>
				<path style="fill:#E0E0E0;" d="M178.447,226.635l13.184-7.686c0.861-0.497,1.559-0.12,1.559,0.842
					c0,0.962-0.698,2.145-1.559,2.642l-13.184,7.686c-0.861,0.497-1.559,0.12-1.559-0.842
					C176.889,228.315,177.586,227.132,178.447,226.635z"/>
				<path style="fill:#EBEBEB;" d="M220.429,206.622c-0.207,0-0.375-0.168-0.375-0.375v-4.69c0-0.207,0.168-0.375,0.375-0.375
					c0.207,0,0.375,0.168,0.375,0.375v4.69C220.804,206.454,220.636,206.622,220.429,206.622z"/>
				<path style="fill:#E0E0E0;" d="M202.256,212.799l13.184-7.686c0.861-0.497,1.559-0.12,1.559,0.842
					c0,0.962-0.698,2.145-1.559,2.642l-13.184,7.686c-0.861,0.497-1.559,0.12-1.559-0.842
					C200.697,214.48,201.395,213.297,202.256,212.799z"/>
				<path style="fill:#EBEBEB;" d="M244.238,192.787c-0.207,0-0.375-0.168-0.375-0.375v-4.69c0-0.207,0.168-0.375,0.375-0.375
					c0.207,0,0.375,0.168,0.375,0.375v4.69C244.613,192.619,244.445,192.787,244.238,192.787z"/>
				<path style="fill:#E0E0E0;" d="M226.065,198.964l13.184-7.686c0.861-0.497,1.559-0.12,1.559,0.842
					c0,0.962-0.698,2.145-1.558,2.642l-13.184,7.686c-0.861,0.497-1.559,0.12-1.559-0.842
					C224.506,200.644,225.204,199.461,226.065,198.964z"/>
				<path style="fill:#E0E0E0;" d="M249.874,185.129l13.184-7.686c0.861-0.497,1.559-0.12,1.559,0.842
					c0,0.962-0.697,2.145-1.558,2.642l-13.184,7.686c-0.861,0.497-1.559,0.12-1.559-0.842
					C248.315,186.809,249.013,185.626,249.874,185.129z"/>
			</g>
		</g>
	</g>
</g>
<g id="Plants">
	<g id="Plants_12_">
		<path id="XMLID_1438_" style="fill:#27DEBF;" d="M126.957,398.892l13.295-7.659c0,0,8.248-24.279,6.159-46.639
			c-2.595-27.788-15.715-37.553-23.427-34.453c-7.712,3.1-6.115,14.171,2.053,29.017
			C131.515,350.931,131.53,378.053,126.957,398.892z"/>
		<path id="XMLID_1439_" style="opacity:0.1;" d="M126.957,398.892l13.295-7.659c0,0,8.248-24.279,6.159-46.639
			c-2.595-27.788-15.715-37.553-23.427-34.453c-7.712,3.1-6.115,14.171,2.053,29.017
			C131.515,350.931,131.53,378.053,126.957,398.892z"/>
		<g id="XMLID_1406_">
			<g id="XMLID_1407_">
				<path id="XMLID_1408_" style="fill:#FFFFFF;" d="M133.346,395.845c0.253,0,0.49-0.162,0.573-0.416
					c8.56-26.21,8.917-63.019-7.281-79.613c-0.232-0.239-0.613-0.244-0.852-0.01c-0.238,0.232-0.243,0.614-0.01,0.852
					c15.291,15.665,15.565,52.162,6.996,78.396c-0.103,0.317,0.07,0.658,0.386,0.761
					C133.221,395.835,133.285,395.845,133.346,395.845z"/>
			</g>
		</g>
		<g id="XMLID_1396_">
			<path id="XMLID_1405_" style="fill:#27DEBF;" d="M103.077,412.677c-1.376,0.79-4.213-0.938-5.3-1.667
				c-1.86-1.248-3.367-3.016-4.369-5.015c-1.165-2.327-1.459-4.82-1.094-7.393c0.189-1.335,0.563-2.635,0.935-3.931
				c0.366-1.272,0.731-2.544,1.097-3.816c0.361-1.255,0.725-2.553,0.56-3.849c-0.334-2.61-2.651-4.438-4.757-6.015
				c-2.329-1.744-4.754-4.046-4.741-7.188c0.01-2.424,1.266-4.676,2.768-6.578c1.502-1.903,3.285-3.584,4.643-5.592
				c0.977-1.446,1.74-3.144,1.581-4.882c-0.099-1.08-0.546-2.097-1.063-3.05c-1.109-2.046-2.573-3.92-3.338-6.118
				c-0.765-2.198-0.656-4.931,1.059-6.504c1.408-1.291,3.5-1.471,5.406-1.345c1.763,0.117,3.486,0.912,5.028,1.77
				c4.988,2.774,7.835,8.681,13.128,10.816c2.042,0.823,4.279,1.004,6.407,1.566c2.128,0.563,4.298,1.65,5.284,3.618
				c1.943,3.881-1.663,8.664-0.297,12.783c1.209,3.646,4.751,5.041,6.741,8.326c0.87,1.437,1.071,3.098,0.931,4.772
				c-0.238,2.834-0.653,4.913-2.012,8.065c-1.124,2.604-4.426,7.265-4.426,7.265C127.165,398.796,103.288,412.556,103.077,412.677z"
				/>
			<g id="XMLID_1403_">
				<path id="XMLID_1404_" style="fill:#FFFFFF;" d="M117.336,404.975c0.267,0,0.499-0.199,0.533-0.471
					c2.57-20.363-7.15-47.83-21.667-61.229c-0.218-0.2-0.558-0.189-0.76,0.031c-0.201,0.218-0.188,0.558,0.031,0.76
					c14.292,13.191,23.86,40.243,21.329,60.304c-0.037,0.294,0.171,0.563,0.466,0.6
					C117.291,404.974,117.314,404.975,117.336,404.975z"/>
			</g>
			<g id="XMLID_1401_">
				<path id="XMLID_1402_" style="fill:#FFFFFF;" d="M114.853,378.918c0.164,0,0.326-0.074,0.431-0.216
					c0.179-0.238,0.13-0.575-0.107-0.752c-8.011-6.01-20.253-4.963-20.77-4.916c-0.296,0.028-0.513,0.289-0.486,0.585
					c0.027,0.297,0.297,0.508,0.585,0.486c0.123-0.013,12.349-1.055,20.026,4.704C114.627,378.882,114.741,378.918,114.853,378.918z
					"/>
			</g>
			<g id="XMLID_1397_">
				<path id="XMLID_1398_" style="fill:#FFFFFF;" d="M113.646,373.924c0.288,0,0.526-0.228,0.537-0.517
					c0.364-9.328,7.411-14.964,7.482-15.02c0.234-0.183,0.274-0.521,0.091-0.755c-0.184-0.233-0.521-0.274-0.755-0.092
					c-0.306,0.24-7.51,5.986-7.893,15.825c-0.011,0.297,0.22,0.547,0.516,0.558C113.632,373.923,113.639,373.924,113.646,373.924z"
					/>
			</g>
		</g>
	</g>
</g>
<g id="Post_1_">
	<g id="Post">
		<g>
			<path style="fill:#EBEBEB;" d="M245.93,395.738c-17.968-10.374-30.234-28.366-33.324-48.882l-7.089-47.067
				c-2.731-18.13-12.649-34.395-27.516-45.124l-9.252-6.676l0.001,5.278l5.016,3.619c14.836,10.704,24.747,26.921,27.504,45.007
				l7.226,47.393c3.121,20.468,15.374,38.408,33.305,48.76l4.128,2.383L245.93,395.738L245.93,395.738z"/>
			<g>
				<path style="fill:#FAFAFA;" d="M245.93,395.161c-17.8-10.375-29.759-27.992-32.83-48.378l-7.089-47.067
					c-2.734-18.147-12.836-34.715-27.718-45.455l-8.626-6.225l112.788-65.118l8.989,6.487c14.665,10.583,24.621,26.91,27.314,44.793
					l7.09,47.067c3.087,20.499,15.03,38.239,32.822,48.805L245.93,395.161z"/>
				<path style="fill:#E0E0E0;" d="M282.426,183.513l8.727,6.298c14.557,10.505,24.439,26.711,27.112,44.462l7.089,47.067
					c3.068,20.367,14.816,38.03,32.333,48.721l-111.756,64.522c-17.531-10.318-29.304-27.735-32.337-47.875l-7.089-47.067
					c-2.754-18.28-12.93-34.968-27.92-45.786l-7.999-5.772L282.426,183.513 M282.487,182.323l-113.738,65.666l9.252,6.676
					c14.867,10.729,24.785,26.994,27.516,45.124l7.089,47.067c3.09,20.516,15.355,38.508,33.323,48.882h0l113.737-65.666l0,0
					c-17.968-10.374-30.233-28.366-33.323-48.882l-7.089-47.067c-2.731-18.13-12.649-34.395-27.516-45.124L282.487,182.323
					L282.487,182.323z"/>
			</g>
			<polygon style="fill:#F5F5F5;" points="245.93,395.738 359.667,330.073 359.666,334.763 245.93,400.429 			"/>
		</g>
		<g id="XMLID_352_">
			<path id="XMLID_725_" style="fill:#27DEBF;" d="M190.006,244.457c-3.965,1.688-4.39,5.157-0.945,7.749
				c3.446,2.592,9.454,3.326,13.421,1.638c3.967-1.687,4.395-5.157,0.944-7.749C199.977,243.504,193.968,242.771,190.006,244.457z"
				/>
			<g id="XMLID_450_">
				<g id="XMLID_544_">
					<path id="XMLID_550_" style="fill:#FFFFFF;" d="M194.298,248.674c-0.329,0.023-0.677,0.013-1.039-0.031
						c-0.834-0.102-1.57-0.367-2.073-0.745c-0.921-0.693-0.812-1.589,0.249-2.04l-0.001-0.001c0.576-0.246,1.353-0.325,2.191-0.224
						c0.834,0.102,1.571,0.367,2.073,0.745c0.921,0.693,0.811,1.589-0.248,2.04C195.122,248.559,194.729,248.645,194.298,248.674z"
						/>
				</g>
				<g id="XMLID_451_">
					<path id="XMLID_537_" style="fill:#FFFFFF;" d="M199.929,248.582c-1.319-0.162-2.554-0.034-3.48,0.359l-1.045,0.442
						c-1.809,0.772-1.996,2.304-0.423,3.488l0.555,0.418c1.895,0.221,4.09,0.159,5.656-0.449c1.713-0.664,2.767-1.425,2.921-2.514
						l-0.776-0.509C202.51,249.195,201.273,248.745,199.929,248.582z"/>
				</g>
			</g>
		</g>
		<g>
			<path style="fill:#455A64;" d="M208.466,237.078l33.401-19.284c1.196-0.69,3.101-0.634,4.189,0.216
				c0.101,0.079,0.203,0.16,0.306,0.241c1.081,0.859,0.959,2.153-0.236,2.845l-33.37,19.329c-1.195,0.692-2.997,0.506-4.077-0.354
				c-0.117-0.093-0.235-0.186-0.353-0.278C207.237,238.947,207.27,237.769,208.466,237.078z"/>
			<path style="fill:#455A64;" d="M215.81,244.858l16.716-9.651c0.598-0.345,0.678-1.011,0.178-1.488l-0.304-0.29
				c-0.499-0.477-1.387-0.581-1.983-0.232l-16.626,9.723c-0.596,0.349-0.675,1.018-0.177,1.496l0.21,0.202
				C214.324,245.095,215.212,245.203,215.81,244.858z"/>
		</g>
		<g>
			<path style="opacity:0.2;" d="M204.882,263.186l90.149-52.049c1.196-0.69,2.833-0.351,3.613,0.788
				c0.062,0.09,0.123,0.18,0.184,0.27c0.775,1.143,0.394,2.656-0.802,3.347l-90.17,52.088c-1.195,0.691-2.748,0.295-3.513-0.855
				c-0.064-0.097-0.129-0.194-0.194-0.29C203.378,265.34,203.686,263.877,204.882,263.186z"/>
			<path style="opacity:0.2;" d="M210.35,272.073l90.222-52.092c1.196-0.69,2.691-0.263,3.285,0.984
				c0.047,0.098,0.093,0.196,0.139,0.294c0.588,1.249,0.058,2.839-1.137,3.53l-90.237,52.139c-1.195,0.691-2.593,0.215-3.176-1.036
				c-0.051-0.109-0.102-0.218-0.154-0.327C208.702,274.317,209.154,272.764,210.35,272.073z"/>
			<path style="opacity:0.2;" d="M214.411,281.719l90.295-52.126c1.196-0.69,2.537-0.193,2.929,1.131
				c0.043,0.146,0.086,0.293,0.13,0.442c0.384,1.326-0.305,2.969-1.501,3.66l-90.317,52.169c-1.196,0.691-2.43,0.163-2.808-1.165
				c-0.046-0.16-0.092-0.32-0.138-0.479C212.613,284.027,213.216,282.409,214.411,281.719z"/>
			<path style="opacity:0.2;" d="M217.023,292.241l52.483-30.306c1.196-0.69,2.335-0.144,2.544,1.221l0.107,0.7
				c0.21,1.365-0.59,3.031-1.785,3.722l-52.49,30.34c-1.195,0.691-2.331,0.145-2.537-1.22c-0.037-0.245-0.074-0.489-0.111-0.734
				C215.028,294.597,215.827,292.931,217.023,292.241z"/>
		</g>
		<g>
			<path style="fill:#27DEBF;" d="M325.543,320.762l-85.89,49.599c-2.391,1.381-5.74,0.755-7.25-1.557
				c-5.432-8.32-9.059-18.687-10.88-31.093l-3.435-22.796c-0.411-2.731,1.194-6.064,3.585-7.444l86.04-49.68
				c2.391-1.381,4.664-0.286,5.075,2.444l3.435,22.806c1.376,11.769,4.961,22.152,10.774,31.131
				C328.499,316.491,327.935,319.382,325.543,320.762z"/>
			<path style="opacity:0.7;fill:#FFFFFF;" d="M325.543,320.762l-85.89,49.599c-2.391,1.381-5.74,0.755-7.25-1.557
				c-5.432-8.32-9.059-18.687-10.88-31.093l-3.435-22.796c-0.411-2.731,1.194-6.064,3.585-7.444l86.04-49.68
				c2.391-1.381,4.664-0.286,5.075,2.444l3.435,22.806c1.376,11.769,4.961,22.152,10.774,31.131
				C328.499,316.491,327.935,319.382,325.543,320.762z"/>
			<path style="fill:#27DEBF;" d="M239.653,370.362l85.89-49.599c2.391-1.381,2.955-4.271,1.454-6.589
				c-2.792-4.311-5.055-8.955-6.821-13.912l-26.644-7.522l-11.831,26.25l12.847,10.335l-44.835-23.598l-22.937,52.129
				c1.592,3.971,3.459,7.631,5.627,10.951C233.913,371.117,237.262,371.742,239.653,370.362z"/>
			<path style="fill:#27DEBF;" d="M275.671,287.172c3.159-1.824,6.171-0.312,6.727,3.377c0.556,3.689-1.555,8.159-4.715,9.983
				c-3.16,1.824-6.171,0.312-6.727-3.377C270.4,293.465,272.511,288.996,275.671,287.172z"/>
		</g>
		<g>
			<g>
				<g id="XMLID_296_">
					<g id="XMLID_732_">
						<path id="XMLID_734_" style="fill:#27DEBF;" d="M301.754,350.152c-0.275,0.019-0.566,0.011-0.868-0.026
							c-0.697-0.085-1.312-0.306-1.732-0.622c-0.769-0.579-0.678-1.328,0.208-1.705l-0.001,0c0.481-0.206,1.13-0.272,1.831-0.187
							c0.697,0.085,1.312,0.306,1.732,0.623c0.769,0.579,0.678,1.328-0.208,1.704C302.443,350.056,302.115,350.128,301.754,350.152z
							"/>
					</g>
					<g id="XMLID_726_">
						<path id="XMLID_727_" style="fill:#27DEBF;" d="M306.46,350.075c-1.102-0.135-2.134-0.029-2.908,0.3l-0.873,0.37
							c-1.512,0.645-1.668,1.925-0.354,2.914l0.464,0.349c1.583,0.185,3.417,0.133,4.726-0.375c1.432-0.555,2.312-1.191,2.441-2.1
							l-0.649-0.426C308.616,350.587,307.583,350.212,306.46,350.075z"/>
					</g>
				</g>
				<path style="fill:#27DEBF;" d="M308.105,346.309l-3.214,0.158l-0.876,0.756c-0.147,0.127-0.141,0.356,0.011,0.476l0.875,0.686
					l3.267-0.129L308.105,346.309z M304.673,347.668c-0.13,0-0.235-0.105-0.235-0.235s0.105-0.235,0.235-0.235
					c0.13,0,0.235,0.105,0.235,0.235S304.803,347.668,304.673,347.668z"/>
			</g>
			<g>
				<path style="fill:#27DEBF;" d="M324.78,340.613c-0.039,0.487-0.628,0.899-0.975,1.101c-0.619,0.36-1.41,0.611-2.264,0.729
					C320.759,341.553,322.217,339.952,324.78,340.613z"/>
				<path style="fill:#27DEBF;" d="M324.905,337.458c-2.361-1.947-6.06-2.669-8.667-1.178c-2.607,1.492-3.107,4.637-0.72,6.593
					c2.388,1.957,6.665,1.987,9.245,0.486C327.342,341.858,327.265,339.405,324.905,337.458z M320.947,337.043
					c0.415-0.231,0.999-0.123,1.338,0.208c0.339,0.331,0.297,0.773-0.117,1.012s-1.052,0.186-1.391-0.155
					C320.437,337.768,320.532,337.274,320.947,337.043z M316.206,340.678c-0.339-0.34-0.244-0.834,0.171-1.065
					c0.415-0.231,0.999-0.123,1.338,0.208c0.339,0.331,0.297,0.773-0.117,1.012C317.183,341.072,316.545,341.018,316.206,340.678z
					 M324.053,342.14c-0.95,0.553-2.264,0.87-3.605,0.87c-1.175,0-2.275-0.237-3.153-0.667l6.713-3.797
					c0.856,0.706,1.317,1.474,1.265,2.108C325.217,341.328,324.579,341.834,324.053,342.14z"/>
			</g>
			<path style="fill:#27DEBF;" d="M339.006,328.674c-0.208-0.343-0.502-0.68-0.887-0.997c-1.65-1.361-4.236-1.866-6.058-0.823
				c-1.822,1.043-2.172,3.241-0.503,4.608c0.202,0.158,0.43,0.303,0.669,0.441c0.009,0.005,0.018,0.01,0.028,0.015
				c2.984,1.707,8.454,1.923,8.454,1.923S340.729,331.01,339.006,328.674z M336.405,330.559c-0.862,0.502-2.293,0.492-3.091-0.162
				c-0.798-0.654-0.631-1.706,0.241-2.204c0.872-0.499,2.108-0.257,2.898,0.394C337.242,329.237,337.267,330.057,336.405,330.559z"
				/>
		</g>
	</g>
</g>
<g id="Character">
	<g id="Character_4_">
		<g>
			<g id="XMLID_736_">
				<g id="XMLID_738_">
					<g id="XMLID_739_">
						<path id="XMLID_1047_" style="fill:#FFA8A7;" d="M447.651,339.229l-12.862,37.528c-0.374,1.091-1.919,1.086-2.286-0.007
							l-12.695-37.827L447.651,339.229z"/>
						<path id="XMLID_1044_" style="fill:#263238;" d="M432.503,376.75c0.367,1.094,1.912,1.098,2.286,0.007l2.511-7.327l0,0
							c-2.207,1.184-4.89,1.035-6.952-0.386l-0.561-0.386L432.503,376.75z"/>
						<path id="XMLID_1043_" style="fill:#27DEBF;" d="M420.294,171.575l-0.008,3.672l-0.029,4.431l-0.453,159.241
							c2.942,3.365,7.302,5.072,11.724,5.517c6.733,0.7,13.637-1.506,16.104-5.21l0.448-159.145l0.023-8.47
							C447.785,177.095,420.049,177.079,420.294,171.575z"/>
						<path id="XMLID_1036_" style="fill:#EBEBEB;" d="M420.21,185.554l-0.009,8.2c-0.082,2.377,4.982,3.912,10.827,4.45
							c7.762,0.735,16.9-1.368,17.014-4.518l0.017-6.044l-0.032-2.161c-0.113,3.15-9.253,5.259-17.015,4.524
							c-5.6-0.523-10.501-1.978-10.781-4.195l-0.001-0.024C420.204,185.713,420.201,185.64,420.21,185.554z"/>
						<path id="XMLID_1033_" style="fill:#27DEBF;" d="M420.226,187.6c-0.2,5.52,27.623,5.45,27.823-0.07l0.035-8.208
							c-0.2,5.52-28.02,5.589-27.82,0.069L420.226,187.6z"/>
						<path id="XMLID_742_" style="fill:#EBEBEB;" d="M420.294,171.575l-0.037,8.103c-0.236,5.418,26.612,5.577,27.824,0.404
							c0.033-0.087,0.041-0.197,0.049-0.308l-0.027-8.162C447.785,177.095,420.049,177.079,420.294,171.575z"/>
					</g>
				</g>
				<path style="fill:#F28F8F;" d="M448.235,136.855c0-0.058,0-0.286,0-0.344c0-3.954-6.228-7.159-13.91-7.159
					c-7.682,0-13.909,3.205-13.909,7.159v3.728l-0.122,31.336c-0.107,2.354,4.896,3.903,10.693,4.467
					c7.763,0.759,16.942-1.29,17.117-4.43c0.012-0.013,0.012-0.013,0.011-0.037l0.122-34.495
					C448.237,137.029,448.235,136.881,448.235,136.855z"/>
				<ellipse style="opacity:0.2;fill:#FFFFFF;" cx="434.325" cy="136.512" rx="13.909" ry="7.159"/>
				<path id="XMLID_741_" style="opacity:0.1;" d="M448.081,180.082l0.153-43.227c-0.188,3.387-5.954,6.588-12.252,6.815
					l-0.449,200.895l-0.745,32.191l12.862-37.528l-0.019,0c0,0,0.001-0.001,0.001-0.001L448.081,180.082z"/>
			</g>
			<g>
				<path style="fill:#B16668;" d="M403.091,213.559c5.285-0.768,11.811,3.21,16.351,9.592c4.54,6.381,20.361,21.909,22.093,26.85
					c1.263,3.605,0.522,10.368-6.926,7.195c-7.214-3.073-30.196-25.625-30.196-25.625L403.091,213.559z"/>
				<path style="fill:#37474F;" d="M400.561,213.559c0,0,3.351-0.7,5.178-0.578c1.827,0.123,5.939,1.208,10.168,5.327
					c4.229,4.119,15.209,17.434,15.209,17.434s0.491,3.734-3.189,7.904c-3.68,4.17-7.114,4.17-7.114,4.17L404.5,234.311
					L400.561,213.559z"/>
				<path style="fill:#B16668;" d="M436.395,242.674l11.557-16.84l0.035-12.37c0,0,2.561,0.857,3.579,4.844
					c1.017,3.987,2.289,8.627,1.781,12.03c-0.509,3.403-8.541,23.948-12.862,26.857
					C436.148,260.113,436.395,242.674,436.395,242.674z"/>
			</g>
		</g>
		<g>
			<g id="XMLID_1029_">
				<g id="XMLID_1031_">
					<polygon id="XMLID_1032_" style="fill:#B16668;" points="384.195,207.973 386.451,222.207 400.561,221.453 398.537,204.911 
											"/>
				</g>
			</g>
			<g id="XMLID_879_">
				<g id="XMLID_1018_">
					<path id="XMLID_1019_" style="fill:#9A4A4D;" d="M374.704,190.509c0,0-3.363,5.104-2.98,5.605
						c0.383,0.501,2.858,0.954,2.858,0.954L374.704,190.509z"/>
				</g>
				<g id="XMLID_965_">
					<path id="XMLID_1017_" style="fill:#B16668;" d="M384.044,176.39c-6.806,1.436-8.772,4.428-9.413,15.24
						c-0.67,11.298,0.483,14.849,1.967,16.371c1.002,1.026,6.57,1.212,9.379,0.438c3.516-0.969,11.46-3.785,15.181-9.468
						c4.376-6.686,5.526-15.748,0.841-19.465C395.405,174.274,386.814,175.806,384.044,176.39z"/>
				</g>
				<path style="fill:#9A4A4D;" d="M384.319,208.754c0,0,1.905-0.336,3.585-0.905c0,0-0.985,1.335-3.417,1.97L384.319,208.754z"/>
			</g>
			<g id="XMLID_761_">
				<g id="XMLID_876_">
					<g id="XMLID_877_">
						<path id="XMLID_878_" style="fill:#263238;" d="M374.2,179.819c0.885,0.525,1.897,0.903,2.962,1.211
							c1.66,0.48,1.409,1.105,1.642,2.622c0.207,1.351,0.854,2.668,1.871,3.592c0.645,0.585,1.128,0.639,1.344,1.539
							c0.217,0.904,0.029,1.912,0.039,2.83c0.021,1.875,1.218,3.302,1.802,0.788c0,0,1.076-4.176,4.596-3.651
							c3.543,0.529,3.83,4.492,2.151,7.605c-1.021,1.894-3.756,1.398-3.756,1.398s-0.62,5.205,3.676,9.469
							c0,0,3.504,2.598,8.957-0.098c3.181-4.148,4.432-6.341,6.256-9.511c2.443-4.246,4.546-9.46,3.716-14.456
							c-0.305-1.836-1.064-3.605-2.367-4.956c-0.947-0.981-0.876-1.168-1.135-2.5c-0.216-1.112-0.816-2.156-1.7-2.87
							c-1.366-1.102-3.354-1.372-4.963-0.672c-0.003-1.742-1.476-3.243-3.159-3.695c-1.682-0.452-3.491-0.034-5.072,0.699
							c-0.907-1.631-2.677-2.748-4.539-2.865c-1.862-0.117-3.758,0.771-4.861,2.277c-0.466-0.82-1.417-1.277-2.356-1.361
							c-0.94-0.084-1.878,0.153-2.776,0.441c-0.745,0.239-1.483,0.517-2.157,0.915c-2.483,1.469-3.8,4.666-3.073,7.457
							C371.771,177.84,372.832,179.007,374.2,179.819z"/>
					</g>
				</g>
				<g id="XMLID_819_">
					<g id="XMLID_872_">
						<path id="XMLID_875_" style="fill:#263238;" d="M406.067,178.692l4.073-2.401c-0.663-1.125-2.112-1.499-3.237-0.836
							C405.779,176.118,405.405,177.567,406.067,178.692z"/>
					</g>
				</g>
			</g>
		</g>
		<g id="XMLID_751_">
			<path id="XMLID_760_" style="fill:#263238;" d="M409.869,390.08c0.03,0.305,0.06,0.61,0.09,0.915
				c0.118,1.206,0.237,2.424,0.092,3.628c-0.1,0.836-0.342,1.967-1.118,2.426c-0.793,0.468-1.763,0.824-2.658,1.04
				c-2.035,0.49-4.27,0.315-6.161-0.604c-1.599-0.777-2.851-1.993-4.586-2.478c-1.774-0.496-3.614-0.689-5.438-0.897
				c-0.811-0.092-1.628-0.189-2.405-0.441c-0.602-0.196-1.171-0.483-1.731-0.778c-1.887-0.995-3.75-2.13-5.138-3.75
				c-0.895-1.044-1.572-2.309-1.837-3.665c-0.157-0.803-0.483-3.114,0.853-3.054c6.547,0.294,13.03,1.697,19.583,1.62
				c0.425-0.005,0.853-0.016,1.273,0.052c0.815,0.133,1.537,0.555,2.199,1.029c0.773,0.553,1.052,0.571,2.009,0.491
				c1.145-0.096,2.266-0.244,3.398,0.05c0.474,0.123,0.986,0.339,1.171,0.792c0.064,0.157,0.081,0.328,0.098,0.496
				C409.664,387.995,409.767,389.037,409.869,390.08z"/>
			<g id="XMLID_758_">
				<path id="XMLID_759_" style="fill:#B16668;" d="M409.198,382.236l-0.338,4.936c-0.319,1.879-6.722,3.029-8.041-0.296
					l-0.627-5.596L409.198,382.236z"/>
			</g>
			<g>
				<path id="XMLID_756_" style="fill:#263238;" d="M384.831,401.756c0,0,0.784,2.568,1.186,4.807c0.32,1.78,0.77,4.754,0.119,6.072
					c-0.651,1.319-3.09,2.125-6.842,2.012c-2.43-0.073-6.255,1.492-8.881,2.881c-2.712,1.434-8.296,1.904-11.122,1.508
					c-3.33-0.467-6.746-2.481-7.254-3.876c-0.508-1.395,0.241-2.814,8.185-5.99c0.073-0.029,11.019-3.318,14.921-7.434
					L384.831,401.756z"/>
				<path id="XMLID_755_" style="fill:#B16668;" d="M384.902,398.587c0,0-0.06,2.175-0.077,3.418
					c-0.017,1.243-1.527,3.062-5.324,2.841c-2.667-0.156-4.514-0.915-4.359-3.111l0.071-3.168L384.902,398.587z"/>
			</g>
			<g id="XMLID_752_">
				<path id="XMLID_754_" style="fill:#27DEBF;" d="M411.781,344.334c-1.126-9.608-1.968-15.113-1.968-15.113
					s0.194-13.378,0.977-25.854c0.846-13.476,0.657-30.444,0.989-33.802c0,0-43.293-9.247-43.644,6.364
					c-0.408,18.141,0.8,55.671,1.056,60.557c0.36,6.862,0.375,13.996,1.54,25.13c1.15,10.989,4.482,36.952,4.482,36.952
					c4.911,2.8,9.688,0.02,9.688,0.02s3.766-31.108,3.622-39.018c-0.175-9.66-1.643-17.102-1.643-17.102l3.411-35.213
					c0,0,1.338,10.887,1.698,17.748c0.36,6.862,1.302,11.049,2.997,23.816c1.471,11.076,5.205,34.454,5.205,34.454
					c4.911,2.8,9.206-0.368,9.206-0.368S412.907,353.941,411.781,344.334z"/>
				<path id="XMLID_743_" style="opacity:0.3;" d="M411.781,344.334c-1.126-9.608-1.968-15.113-1.968-15.113
					s0.194-13.378,0.977-25.854c0.846-13.476,0.657-30.444,0.989-33.802c0,0-43.293-9.247-43.644,6.364
					c-0.408,18.141,0.8,55.671,1.056,60.557c0.36,6.862,0.375,13.996,1.54,25.13c1.15,10.989,4.482,36.952,4.482,36.952
					c4.911,2.8,9.688,0.02,9.688,0.02s3.766-31.108,3.622-39.018c-0.175-9.66-1.643-17.102-1.643-17.102l3.411-35.213
					c0,0,1.338,10.887,1.698,17.748c0.36,6.862,1.302,11.049,2.997,23.816c1.471,11.076,5.205,34.454,5.205,34.454
					c4.911,2.8,9.206-0.368,9.206-0.368S412.907,353.941,411.781,344.334z"/>
				<path id="XMLID_753_" style="opacity:0.15;" d="M406.758,290.877c0,0-3.002,4.949-12.101,8.576l-2.532,8.502l-0.277,14.938
					c-0.347-4.814-0.879-10.072-1.556-15.639l1.025-8.759C391.318,298.494,401.367,295.45,406.758,290.877z"/>
			</g>
		</g>
		<g id="XMLID_748_">
			<g id="XMLID_749_">
				<path id="XMLID_750_" style="fill:#455A64;" d="M413.446,222.768c-1.739-6.188-5.824-8.921-10.355-9.21
					c-1.154-0.073-3.493,0.026-3.493,0.026c0.321,2.621-7.757,4.471-14.04,2.992c-1.894,0.497-5.03,1.208-6.607,1.732
					c-4.515,1.499-9.93,7.145-10.633,21.872c0,0-0.717,31.655-0.494,40.85c11.149,4.705,21.911,5.292,28.409,4.025
					c13.528-2.638,15.751-8.434,15.751-8.434s-0.128-8.045-0.632-20.872C413.647,237.507,414.2,225.451,413.446,222.768z"/>
			</g>
		</g>
		<g>
			<path style="fill:#B16668;" d="M360.702,275.231c2.602,1.846,3.744,3.833,3.952,7.043c0.186,2.874,0.183,5.996,1.533,8.603
				c0.223,0.43,1.399,1.399,1.864,1.264l0.01-3.679c0.748-0.951,2.795-2.725,3.326-3.812c0.886-1.816-0.148-4.039,0.385-5.987
				c0.233-0.849,0.668-1.514,0.678-2.422c0.024-2.141-0.577-4.174-2.251-5.545c-1.963-1.607-3.761-3.605-5.55-5.405
				c-2.318-2.333-5.538-5.762-7.857-8.096l15.572-14.935c1.791-1.718,3.296-3.706,4.44-5.908c2.543-4.897,6.033-13.487,2.148-18.043
				c-5.551,0-8.706,0.85-14.372,7.461c-4.889,5.704-20.504,24.405-22.51,27.576s-3.16,5.337,0.69,8.857
				c2.685,2.455,6.482,5.103,9.821,7.504C355.199,271.589,358.069,273.363,360.702,275.231z"/>
			<path style="fill:#9A4A4D;" d="M356.792,257.195c0,0-2.132,2.131-4.775,3.271c0,0,3.621-0.462,5.854-2.175L356.792,257.195z"/>
			<path style="fill:#37474F;" d="M380.689,217.804c0,0-3.352-0.228-6.721,0.504c-3.369,0.732-5.634,2.445-11.48,9.049
				c-5.846,6.603-9.937,12.02-9.937,12.02s-1.685,3.728,3.008,7.939c4.693,4.211,8.904,3.489,8.904,3.489l13.115-12.754
				C377.578,238.051,386.928,228.241,380.689,217.804z"/>
		</g>
	</g>
</g>
</svg>
