<?xml version="1.0" encoding="UTF-8" standalone="no"?>
<!DOCTYPE svg PUBLIC "-//W3C//DTD SVG 1.1//EN" "http://www.w3.org/Graphics/SVG/1.1/DTD/svg11.dtd">
<svg xmlns="http://www.w3.org/2000/svg" xmlns:xlink="http://www.w3.org/1999/xlink" version="1.1" width="80px" height="80px" viewBox="0 0 1041.6666 1041.6666">
<g enable-background="new">
<clipPath id="cp0">
<path transform="matrix(.6666666,0,0,.6666666,0,0)" d="M 0 0 L 1562.5 0 L 1562.5 1562.5 L 0 1562.5 Z " fill-rule="evenodd"/>
</clipPath>
<g clip-path="url(#cp0)">
<path transform="matrix(2.0833333,0,0,2.0833333,0,0)" d="M 0 0 L 500 0 L 500 500 L 0 500 Z " fill="#ffffff"/>
</g>
<clipPath id="cp1">
<path transform="matrix(.6666666,0,0,.6666666,0,0)" d="M 0 0 L 1562.5 0 L 1562.5 1562.5 L 0 1562.5 Z " fill-rule="evenodd"/>
</clipPath>
<g clip-path="url(#cp1)">
<path transform="matrix(2.0833333,0,0,2.0833333,0,0)" d="M 0 0 L 500 0 L 500 500 L 0 500 Z " fill="#ffffff"/>
</g>
<clipPath id="cp2">
<path transform="matrix(.6666666,0,0,.6666666,0,0)" d="M 466.58668 364.90443 L 1091.5867 364.90443 L 1091.5867 908.6544 L 466.58668 908.6544 Z " fill-rule="evenodd"/>
</clipPath>
<g clip-path="url(#cp2)">
<path transform="matrix(13.310601,0,0,13.310601,311.05778,246.51238)" d="M 23.82 8.73 C 22.93 7.9799997 22.26 7.9299995 21.63 8.73 C 22.369999 9.709999 23.74 9.5 24.31 8.719999 L 23.82 8.73 Z " fill="#06654a" fill-rule="evenodd"/>
<path transform="matrix(13.310601,0,0,13.310601,311.05778,246.51238)" d="M 22.5 9.85 C 21.56 9.16 20.89 9.16 20.31 10 C 21.119999 10.93 22.46 10.62 22.98 9.8 L 22.49 9.84 L 22.5 9.85 Z " fill="#06654a" fill-rule="evenodd"/>
<path transform="matrix(13.310601,0,0,13.310601,311.05778,246.51238)" d="M 21.54 11.25 C 20.44 10.87 19.800002 11.07 19.5 12.05 C 20.55 12.690001 21.74 12 21.99 11.06 L 21.539999 11.25 L 21.54 11.25 Z " fill="#06654a" fill-rule="evenodd"/>
<path transform="matrix(13.310601,0,0,13.310601,311.05778,246.51238)" d="M 21.07 12.87 C 19.93 12.63 19.32 12.91 19.14 13.91 C 20.26 14.42 21.359999 13.59 21.49 12.63 L 21.07 12.87 Z " fill="#06654a" fill-rule="evenodd"/>
<path transform="matrix(13.310601,0,0,13.310601,311.05778,246.51238)" d="M 20.76 14.87 C 19.62 14.63 19.01 14.91 18.83 15.91 C 19.95 16.42 21.05 15.59 21.18 14.63 L 20.76 14.87 Z " fill="#06654a" fill-rule="evenodd"/>
<path transform="matrix(13.310601,0,0,13.310601,311.05778,246.51238)" d="M 20.31 16.73 C 19.15 16.82 18.64 17.26 18.75 18.27 C 19.97 18.45 20.79 17.34 20.65 16.380002 L 20.31 16.730002 L 20.31 16.73 Z " fill="#06654a" fill-rule="evenodd"/>
<path transform="matrix(13.310601,0,0,13.310601,311.05778,246.51238)" d="M 16.26 16.39 C 17.37 16.73 17.78 17.26 17.45 18.23 C 16.220002 18.14 15.660001 16.89 16 15.98 L 16.26 16.39 Z " fill="#06654a" fill-rule="evenodd"/>
<path transform="matrix(13.310601,0,0,13.310601,311.05778,246.51238)" d="M 16.6 13.9 C 17.66 14.37 18 14.959999 17.550002 15.87 C 16.34 15.63 15.9400019 14.309999 16.390002 13.45 L 16.590003 13.889999 L 16.6 13.9 Z " fill="#06654a" fill-rule="evenodd"/>
<path transform="matrix(13.310601,0,0,13.310601,311.05778,246.51238)" d="M 17.24 11.46 C 18.25 12.03 18.529999 12.65 18 13.52 C 16.82 13.160001 16.55 11.81 17.09 11 L 17.25 11.46 L 17.24 11.46 Z " fill="#06654a" fill-rule="evenodd"/>
<path transform="matrix(13.310601,0,0,13.310601,311.05778,246.51238)" d="M 18.23 9.51 C 19.119999 10.26 19.279999 10.91 18.6 11.67 C 17.51 11.1 17.48 9.72 18.16 9.03 L 18.23 9.51 Z " fill="#06654a" fill-rule="evenodd"/>
<path transform="matrix(13.310601,0,0,13.310601,311.05778,246.51238)" d="M 19.85 7.46 C 20.45 8.45 20.390002 9.13 19.5 9.62 C 18.65 8.73 19.07 7.42 19.94 6.9799997 L 19.85 7.4599997 L 19.85 7.46 Z " fill="#06654a" fill-rule="evenodd"/>
<path transform="matrix(13.310601,0,0,13.310601,311.05778,246.51238)" d="M 22.05 6.18 C 22.269999 7.3199999 21.98 7.93 20.98 8.09 C 20.49 6.96 21.33 5.88 22.3 5.76 L 22.05 6.1800005 L 22.05 6.18 Z " fill="#06654a" fill-rule="evenodd"/>
<path transform="matrix(13.310601,0,0,13.310601,311.05778,246.51238)" d="M 11.95 11.8 C 12.2699999 10.900001 11.929999 10.3 10.95 9.99 L 11.13 10.2699999 C 10.940001 11.139999 11.22 11.65 11.95 11.799999 L 11.95 11.8 Z " fill="#06654a" fill-rule="evenodd"/>
<path transform="matrix(13.310601,0,0,13.310601,311.05778,246.51238)" d="M 13.03 12.84 C 13.62 12.1 13.51 11.42 12.679999 10.8 L 12.759999 11.12 C 12.299999 11.88 12.389999 12.45 13.03 12.84 Z " fill="#06654a" fill-rule="evenodd"/>
<path transform="matrix(13.310601,0,0,13.310601,311.05778,246.51238)" d="M 13.82 14.41 C 14.559999 13.809999 14.59 13.12 13.91 12.35 L 13.92 12.68 C 13.31 13.320001 13.28 13.900001 13.82 14.42 L 13.82 14.41 Z " fill="#06654a" fill-rule="evenodd"/>
<path transform="matrix(13.310601,0,0,13.310601,311.05778,246.51238)" d="M 14.19 15.86 C 15.049999 15.469999 15.259999 14.809999 14.799999 13.889999 L 14.719999 14.209999 C 13.969999 14.679999 13.789999 15.23 14.179999 15.859999 L 14.19 15.86 Z " fill="#06654a" fill-rule="evenodd"/>
<path transform="matrix(13.310601,0,0,13.310601,311.05778,246.51238)" d="M 14.52 17.57 C 15.43 17.3 15.72 16.67 15.400001 15.7 L 15.280001 16 C 14.47 16.36 14.220001 16.88 14.52 17.57 Z " fill="#06654a" fill-rule="evenodd"/>
<path transform="matrix(13.310601,0,0,13.310601,311.05778,246.51238)" d="M 14.59 19.32 C 15.530001 19.15 15.89 18.57 15.67 17.56 L 15.52 17.85 C 14.68 18.12 14.370001 18.61 14.59 19.32 Z " fill="#06654a" fill-rule="evenodd"/>
<path transform="matrix(13.310601,0,0,13.310601,311.05778,246.51238)" d="M 13.62 19.28 C 12.67 19.37 12.17 18.900002 12.11 17.87 L 12.33 18.11 C 13.22 18.140002 13.639999 18.53 13.62 19.28 Z " fill="#06654a" fill-rule="evenodd"/>
<path transform="matrix(13.310601,0,0,13.310601,311.05778,246.51238)" d="M 13.55 17.64 C 12.64 17.9 12.05 17.529999 11.81 16.529999 L 12.070001 16.72 C 12.950001 16.59 13.440001 16.89 13.550001 17.64 L 13.55 17.64 Z " fill="#06654a" fill-rule="evenodd"/>
<path transform="matrix(13.310601,0,0,13.310601,311.05778,246.51238)" d="M 13.38 16.02 C 12.5 16.390002 11.88 16.09 11.52 15.13 L 11.8 15.29 C 12.650001 15.05 13.18 15.3 13.38 16.02 Z " fill="#06654a" fill-rule="evenodd"/>
<path transform="matrix(13.310601,0,0,13.310601,311.05778,246.51238)" d="M 13.04 14.7 C 12.16 15.07 11.54 14.7699999 11.18 13.809999 L 11.46 13.969999 C 12.31 13.73 12.84 13.98 13.04 14.699999 L 13.04 14.7 Z " fill="#06654a" fill-rule="evenodd"/>
<path transform="matrix(13.310601,0,0,13.310601,311.05778,246.51238)" d="M 12.47 13.15 C 11.780001 13.799999 11.09 13.74 10.41 12.969999 L 10.73 13.0199999 C 11.45 12.5 12.0199999 12.539999 12.459999 13.15 L 12.47 13.15 Z " fill="#06654a" fill-rule="evenodd"/>
<path transform="matrix(13.310601,0,0,13.310601,311.05778,246.51238)" d="M 11.45 12.18 C 10.82 12.89 10.13 12.900001 9.38 12.200001 L 9.71 12.220001 C 10.37 11.630001 10.95 11.620001 11.45 12.180001 L 11.45 12.18 Z " fill="#06654a" fill-rule="evenodd"/>
<path transform="matrix(13.310601,0,0,13.310601,311.05778,246.51238)" d="M 23.18 10.63 C 24.68 13.22 24.65 16.43 23.1 18.99 L 24.92 19.449999 C 25.37 18.539999 25.67 17.589999 25.84 16.619999 C 26.960001 16.749999 28.54 16.439999 30.57 15.679998 C 28.57 15.519999 27.039999 15.129998 25.99 14.499998 C 25.949999 13.379998 25.74 12.259998 25.34 11.189999 C 26.74 10.569999 28.01 9.529999 29.14 8.0599989 C 28.24 8.659999 26.83 9.069999 24.92 9.279999 C 24.28 10.039999 24.16 10.119999 23.18 10.629999 L 23.18 10.63 Z " fill="#96db32" fill-rule="evenodd"/>
<path transform="matrix(13.310601,0,0,13.310601,311.05778,246.51238)" d="M 9.72 20.8 C 6.8900005 17.919999 6.4800007 13.439999 8.72 10.089999 C 10.97 6.729999 15.26 5.4099996 19 6.919999 C 19.55 6.319999 19.99 5.869999 20.32 5.569999 C 19.449999 5.149999 18.56 4.8699996 17.64 4.6999995 C 17.65 3.3199993 17.3 1.7499993 16.609999 -.010000706 C 16.39 2.2799993 16.039999 3.7899993 15.5599989 4.5399997 C 14.439999 4.5699999 13.339998 4.7799999 12.289999 5.1699998 C 11.429999 3.3399997 10.399999 2.0799998 9.209999 1.3799996 C 10.329999 4.0099999 10.749999 5.5699999 10.449999 6.0599997 C 9.549999 6.6099998 8.719999 7.3099997 8.009998 8.15 C 6.499998 7.1299998 4.9799988 6.58 3.4299985 6.4999997 C 5.249998 7.7099997 6.379998 8.849999 6.7999985 9.889999 C 6.2699987 10.849999 5.9099986 11.879999 5.709998 12.94 C 3.829998 12.849999 2.279998 13.11 1.0499983 13.74 C 3.1599982 13.95 4.6599986 14.36 5.539998 14.96 C 5.5499985 16.01 5.719998 17.06 6.059998 18.07 C 4.729998 18.81 3.559998 19.88 2.529998 21.27 C 4.749998 20.29 6.199998 19.84 6.869998 19.91 C 7.119998 20.36 7.419998 20.8 7.739998 21.21 L 9.719997 20.8 L 9.72 20.8 Z " fill="#96db32" fill-rule="evenodd"/>
<path transform="matrix(13.310601,0,0,13.310601,311.05778,246.51238)" d="M 17.77 19.94 C 16.67 20.12 15.56 20.380002 14.39 20.65 C 14.29 15.2699999 13.17 12.339999 11.1 11.53 C 10.780001 10.59 10.17 10.23 9.290001 10.45 C 9.600001 11.23 10.170001 11.63 11.000001 11.67 C 13.810001 12.59 13.960001 19.32 13.830001 20.779999 C 10.160001 21.659998 5.920001 22.679999 .010001183 22.46 C 15.060001 27.96 16.11 20.259999 31.240002 23.24 C 26.020003 19.76 22.300002 19.3 18.490002 19.82 C 18.280003 13.34 19.530003 9.38 22.240002 7.95 C 23.260003 7.98 24.030003 7.45 24.550002 6.37 C 23.390002 6.1099998 22.59 6.58 22.140002 7.7799999 C 18.710001 9.49 17.910002 13.37 17.79 19.93 L 17.77 19.94 Z " fill="#06654a" fill-rule="evenodd"/>
<path transform="matrix(13.310601,0,0,13.310601,311.05778,246.51238)" d="M 28.79 25.31 C 21.16 20.56 18.32 25.8 8.740002 25.56 C 18.2 28.939999 20.310002 23.56 28.79 25.31 Z " fill="#06654a" fill-rule="evenodd"/>
</g>
<clipPath id="cp3">
<path transform="matrix(.6666666,0,0,.6666666,0,0)" d="M 0 0 L 1562.5 0 L 1562.5 1562.5 L 0 1562.5 Z " fill-rule="evenodd"/>
</clipPath>
<g clip-path="url(#cp3)">
<g id="Layer-1" data-name="H1">
<g id="Layer-2" data-name="P">
</g>
<symbol id="font_4_21">
<path d="M .076000008 .08400001 L .076000008 .66800007 L 0 .67800006 L 0 .758 L .56000009 .758 L .57500007 .588 L .489 .587 L .45400004 .66200008 L .24900002 .67300006 L .24900002 .41700004 L .39000003 .423 L .42200003 .49800004 L .49500004 .49800004 L .49500004 .24900002 L .414 .24900002 L .39200003 .32900004 L .25 .33100004 L .25 .091000009 L .40600003 .078 L .40600003 0 L .0030000024 0 L .0030000024 .068 L .076000008 .08400001 Z "/>
</symbol>
<symbol id="font_4_6c">
<path d="M .27400003 .57600006 C .35000003 .57600006 .40633337 .56 .44300003 .528 C .47966669 .49666668 .498 .44566668 .498 .37500004 L .498 .08 L .56200006 .08 L .56200006 .028 C .5486667 .018666668 .53000006 .011666668 .50600007 .007000001 C .48266665 .0023333345 .45933334 .0000000009313226 .43600003 .0000000009313226 C .41133336 .0000000009313226 .39100004 .004666668 .375 .014000001 C .359 .024000003 .35000003 .038000004 .34800003 .056000007 C .30866669 .01866667 .26133336 .0000000009313226 .206 .0000000009313226 C .14466667 .0000000009313226 .095 .013666667 .057000005 .041 C .019000002 .069000009 0 .10766667 0 .157 C 0 .20100002 .015333335 .23799999 .046000005 .268 C .07666667 .298 .116666678 .32033337 .16600001 .335 C .216 .34966669 .26900003 .35700003 .32500003 .35700003 L .32500003 .363 C .32433335 .40700004 .31633333 .43800006 .301 .45600004 C .28633336 .474 .25966669 .483 .22100002 .483 C .19300002 .483 .16333334 .479 .132 .47100003 C .10133334 .46300004 .07733334 .45300005 .060000004 .441 L .027000003 .51600006 C .051 .53533336 .086666669 .55 .134 .56 C .182 .57066676 .22866667 .57600006 .27400003 .57600006 M .32500003 .282 C .28166668 .282 .24566667 .27333335 .21700001 .256 C .18900001 .23866667 .17500001 .21266668 .17500001 .178 C .17500001 .15066667 .18166669 .12966667 .19500003 .115 C .20899999 .101 .22933333 .094000007 .256 .094000007 C .28533338 .094000007 .30833338 .101 .32500003 .115 L .32500003 .282 Z "/>
</symbol>
<symbol id="font_4_bc">
<path d="M .089 .17300001 L .120000008 .11900001 C .13933334 .09966668 .15566667 .086 .169 .078 C .18233335 .07 .19966668 .066 .221 .066 C .24700003 .066 .26666669 .071333337 .28000004 .082 C .29400004 .09333334 .30100004 .10833334 .30100004 .127 C .30033336 .14366667 .28933335 .15866667 .26800005 .172 C .24733335 .18533333 .216 .20133333 .17400001 .22 C .116666678 .24666667 .07333333 .275 .044000005 .305 C .014666668 .33500005 0 .37233339 0 .41700004 C .00066666558 .451 .012666666 .4796667 .036000004 .503 C .05933334 .527 .08866668 .5446667 .124 .55600008 C .15933334 .5680001 .196 .57400009 .23400001 .57400009 C .26400004 .57533338 .2986667 .573 .33800004 .56700006 C .37733338 .5616667 .40733338 .55466678 .42800004 .54600009 L .42800004 .412 L .34200005 .412 L .31500004 .47300003 C .3056667 .48433338 .29466669 .49366669 .28200004 .50100007 C .26933337 .5083334 .25633336 .512 .24300002 .512 C .22233333 .512 .205 .50766667 .191 .499 C .17766667 .49100004 .171 .48033334 .171 .467 C .171 .44966666 .176 .43466667 .186 .42200003 C .19666668 .40933336 .21100001 .3976667 .22900002 .38700003 C .24700003 .377 .27333335 .364 .30800004 .34800003 C .36066667 .324 .4 .29966668 .42600004 .275 C .45266674 .25033335 .46600006 .21733333 .46600006 .176 C .46600006 .11533334 .44166673 .07066667 .39300005 .042000005 C .34433339 .014000001 .28166668 0 .205 0 C .17166667 0 .13633333 .004 .09900001 .012 C .062333336 .020000002 .032333334 .030666667 .009 .044 L .009 .17300001 L .089 .17300001 Z "/>
</symbol>
<symbol id="font_4_9f">
<path d="M .06600001 .079 L .06600001 .67600008 L 0 .70400008 L 0 .772 L .21000001 .79600009 L .23900002 .78700008 L .23900002 .081 L .32400004 .066 L .32400004 0 L .008000001 0 L .008000001 .066 L .06600001 .079 Z "/>
</symbol>
<symbol id="font_4_3">
<path d="M 0 0 Z "/>
</symbol>
<symbol id="font_4_51">
<path d="M .25800003 .0000000009313226 C .21666669 .0000000009313226 .17000002 .0043333347 .11800001 .013000001 C .06666667 .021000004 .028333335 .03166667 .0029999987 .045 L .0029999987 .24300002 L .076 .24300002 L .122 .12500002 C .13666667 .105 .15466666 .09166667 .176 .085 C .198 .079 .22566666 .076000008 .259 .076000008 C .29433335 .076000008 .32233335 .08533334 .343 .104 C .3643333 .12266668 .375 .14933335 .375 .184 C .375 .22466667 .33766667 .26466669 .263 .30400003 C .19700001 .3393334 .147 .3676667 .113 .38900004 C .07966667 .411 .052333338 .4366667 .031000004 .46600003 C .010333334 .49533335 0 .53033336 0 .57100006 C 0 .61233338 .011999999 .6486667 .036 .68 C .060000004 .7120001 .09200001 .7363334 .132 .753 C .17266667 .77033337 .216 .77900007 .262 .77900007 C .29733334 .77900007 .34066669 .7756667 .39200003 .76900008 C .4433334 .7623334 .479 .754 .499 .744 L .499 .582 L .418 .582 L .373 .685 C .365 .69166669 .35066668 .697 .33 .70100006 C .31000004 .7056667 .293 .708 .279 .708 C .24633332 .708 .21899998 .70100006 .197 .68700006 C .17566669 .6736667 .16500002 .65400007 .16500002 .628 C .16500002 .60200008 .17266667 .5786667 .188 .558 C .20333334 .53800007 .22399999 .51933339 .25 .50200006 C .27666668 .48533336 .31466667 .46400003 .36400003 .43800003 C .42333333 .40733338 .469 .375 .501 .34100003 C .533 .307 .549 .26666669 .549 .22000002 C .549 .17400001 .536 .13433334 .51 .101 C .484 .06766667 .449 .042333336 .405 .025000003 C .36100004 .008333335 .312 .0000000009313226 .25800003 .0000000009313226 Z "/>
</symbol>
<symbol id="font_4_b8">
<path d="M .066 .079 L .066 .4 L 0 .44700004 L 0 .508 L .181 .56200006 L .21600002 .55300006 L .21600002 .45800004 C .22066669 .47600005 .23066668 .49300004 .24600002 .509 C .262 .52500006 .28 .53766676 .3 .54700008 C .32000003 .55700007 .33866669 .56200006 .35600005 .56200006 C .38333337 .56200006 .40100003 .56 .40900005 .55600008 L .40900005 .402 C .40166674 .40933336 .38900004 .41500006 .37100003 .41900004 C .3536667 .423 .33866669 .42500005 .32600004 .425 C .30733336 .42500005 .28966669 .423 .27300004 .41900004 C .257 .4156667 .24566669 .41166673 .23900002 .407 L .23900002 .083000008 L .35300002 .066 L .35300002 0 L .0059999974 0 L .0059999974 .066 L .066 .079 Z "/>
</symbol>
<symbol id="font_4_c1">
<path d="M .23500002 .558 L .402 .558 L .402 .47100003 L .24200002 .47100003 L .24200002 .28300003 C .24200003 .23900001 .24300002 .205 .245 .18100001 C .24700003 .157 .25233338 .13733334 .261 .12200001 C .26966668 .10666668 .28333334 .09900001 .30200003 .09900001 C .314 .09900001 .32900004 .10066667 .34700004 .10400001 C .36566673 .10800001 .37900005 .11200001 .38700003 .116000007 L .41300003 .061000006 C .393 .041000006 .36433337 .025666669 .32700003 .015000001 C .29033337 .0050000005 .25300003 0 .21500002 0 C .17833334 0 .14966668 .006333334 .12900001 .019000002 C .109000008 .03166667 .09466667 .051000004 .086 .07700001 C .07800001 .10300001 .07400001 .13733334 .07400001 .18 L .07400001 .47100003 L 0 .47100003 L 0 .526 C .04266667 .53266677 .074 .54600009 .094000007 .56600007 C .106000009 .57800009 .116000007 .5933334 .12400001 .61200007 C .13266668 .63066676 .14233335 .6563334 .15300001 .68900009 L .23500002 .68900009 L .23500002 .558 Z "/>
</symbol>
<symbol id="font_4_8d">
<path d="M .07000001 .080000009 L .07000001 .67600008 L .003999999 .70400008 L .003999999 .772 L .21500002 .79600009 L .24300002 .78700008 L .24300002 .54700008 L .23300003 .497 C .28100003 .54033336 .34133337 .56200006 .414 .56200006 C .46 .56200006 .4946667 .5516667 .51800009 .531 C .54200008 .51100006 .5576667 .4826667 .56500008 .446 C .573 .41 .57666668 .36333335 .57600006 .30600003 L .57600006 .080000009 L .64300009 .066 L .64300009 0 L .333 .001 L .333 .066 L .404 .080000009 L .404 .282 C .404 .32333336 .40200005 .35566668 .398 .379 C .39466668 .40233336 .38633336 .4206667 .373 .43400003 C .36033333 .44800005 .34033335 .455 .313 .455 C .285 .455 .2616667 .44766668 .24300002 .43300004 L .24300002 .079 L .291 .066 L .291 0 L 0 0 L 0 .066 L .07000001 .080000009 Z "/>
</symbol>
<symbol id="font_4_8f">
<path d="M .155 .84800007 C .18699999 .84800007 .21166666 .83966669 .229 .823 C .24633332 .807 .255 .7846667 .255 .75600007 C .255 .724 .24299999 .69766667 .21900001 .67700007 C .19566667 .657 .168 .647 .136 .647 C .108 .647 .08433333 .65566667 .065 .67300006 C .045666666 .69033339 .036000004 .7123334 .036000004 .739 C .036000004 .75900009 .04166667 .77733346 .053000008 .794 C .065000008 .81066676 .080000009 .82366678 .098000008 .83300009 C .116666678 .8430001 .13566667 .84800007 .155 .84800007 M .238 .55 L .238 .079 L .308 .066 L .308 0 L 0 0 L 0 .066 L .065 .080000009 L .065 .384 L .0030000024 .45400004 L .0030000024 .5 L .19600001 .56200006 L .238 .55 Z "/>
</symbol>
<use xlink:href="#font_4_21" transform="matrix(77.3125,0,0,-77.3125,276.87315,689.9042)" fill="#06654a"/>
<use xlink:href="#font_4_6c" transform="matrix(77.3125,0,0,-77.3125,326.42964,690.9866)" fill="#06654a"/>
<use xlink:href="#font_4_bc" transform="matrix(77.3125,0,0,-77.3125,373.20289,690.8319)" fill="#06654a"/>
<use xlink:href="#font_4_6c" transform="matrix(77.3125,0,0,-77.3125,414.1005,690.9866)" fill="#06654a"/>
<use xlink:href="#font_4_9f" transform="matrix(77.3125,0,0,-77.3125,459.7914,689.9042)" fill="#06654a"/>
<use xlink:href="#font_4_3" transform="matrix(77.3125,0,0,-77.3125,485.536,689.9042)" fill="#06654a"/>
<use xlink:href="#font_4_51" transform="matrix(77.3125,0,0,-77.3125,507.8017,690.9866)" fill="#06654a"/>
<use xlink:href="#font_4_6c" transform="matrix(77.3125,0,0,-77.3125,555.1934,690.9866)" fill="#06654a"/>
<use xlink:href="#font_4_b8" transform="matrix(77.3125,0,0,-77.3125,602.12136,689.9042)" fill="#06654a"/>
<use xlink:href="#font_4_6c" transform="matrix(77.3125,0,0,-77.3125,637.9937,690.9866)" fill="#06654a"/>
<use xlink:href="#font_4_c1" transform="matrix(77.3125,0,0,-77.3125,682.7569,690.8319)" fill="#06654a"/>
<use xlink:href="#font_4_8d" transform="matrix(77.3125,0,0,-77.3125,718.78396,689.9042)" fill="#06654a"/>
<use xlink:href="#font_4_8f" transform="matrix(77.3125,0,0,-77.3125,773.36569,689.9042)" fill="#06654a"/>
</g>
</g>
</g>
</svg>
