<?xml version="1.0" encoding="UTF-8"?>
<svg xmlns="http://www.w3.org/2000/svg" xmlns:xlink="http://www.w3.org/1999/xlink" width="100px" height="100px" viewBox="0 0 100 100" version="1.1">
<defs>
<clipPath id="clip2">
  <path d="M 31 23.355469 L 56 23.355469 L 56 51 L 31 51 Z M 31 23.355469 "/>
</clipPath>
<clipPath id="clip3">
  <path d="M 29.863281 31 L 69.867188 31 L 69.867188 55 L 29.863281 55 Z M 29.863281 31 "/>
</clipPath>
<clipPath id="clip1">
  <rect x="0" y="0" width="100" height="100"/>
</clipPath>
<g id="surface5" clip-path="url(#clip1)">
<rect x="0" y="0" width="100" height="100" style="fill:rgb(100%,100%,100%);fill-opacity:1;stroke:none;"/>
<rect x="0" y="0" width="100" height="100" style="fill:rgb(100%,100%,100%);fill-opacity:1;stroke:none;"/>
<path style=" stroke:none;fill-rule:evenodd;fill:rgb(2.352941%,39.607843%,29.019608%);fill-opacity:1;" d="M 60.304688 34.824219 C 59.164062 33.863281 58.308594 33.800781 57.503906 34.824219 C 58.449219 36.074219 60.199219 35.808594 60.929688 34.808594 Z M 60.304688 34.824219 "/>
<path style=" stroke:none;fill-rule:evenodd;fill:rgb(2.352941%,39.607843%,29.019608%);fill-opacity:1;" d="M 58.617188 36.253906 C 57.414062 35.371094 56.558594 35.371094 55.816406 36.445312 C 56.851562 37.632812 58.566406 37.238281 59.230469 36.191406 L 58.601562 36.242188 Z M 58.617188 36.253906 "/>
<path style=" stroke:none;fill-rule:evenodd;fill:rgb(2.352941%,39.607843%,29.019608%);fill-opacity:1;" d="M 57.390625 38.042969 C 55.984375 37.558594 55.164062 37.8125 54.78125 39.066406 C 56.125 39.882812 57.644531 39 57.964844 37.800781 Z M 57.390625 38.042969 "/>
<path style=" stroke:none;fill-rule:evenodd;fill:rgb(2.352941%,39.607843%,29.019608%);fill-opacity:1;" d="M 56.789062 40.113281 C 55.332031 39.804688 54.550781 40.164062 54.324219 41.441406 C 55.753906 42.09375 57.160156 41.035156 57.324219 39.804688 Z M 56.789062 40.113281 "/>
<path style=" stroke:none;fill-rule:evenodd;fill:rgb(2.352941%,39.607843%,29.019608%);fill-opacity:1;" d="M 56.394531 42.667969 C 54.9375 42.363281 54.15625 42.71875 53.925781 44 C 55.359375 44.648438 56.761719 43.589844 56.929688 42.363281 Z M 56.394531 42.667969 "/>
<path style=" stroke:none;fill-rule:evenodd;fill:rgb(2.352941%,39.607843%,29.019608%);fill-opacity:1;" d="M 55.816406 45.046875 C 54.335938 45.160156 53.683594 45.722656 53.824219 47.015625 C 55.382812 47.242188 56.429688 45.824219 56.253906 44.597656 Z M 55.816406 45.046875 "/>
<path style=" stroke:none;fill-rule:evenodd;fill:rgb(2.352941%,39.607843%,29.019608%);fill-opacity:1;" d="M 50.640625 44.613281 C 52.0625 45.046875 52.585938 45.722656 52.164062 46.960938 C 50.589844 46.847656 49.875 45.25 50.308594 44.085938 Z M 50.640625 44.613281 "/>
<path style=" stroke:none;fill-rule:evenodd;fill:rgb(2.352941%,39.607843%,29.019608%);fill-opacity:1;" d="M 51.078125 41.429688 C 52.429688 42.03125 52.867188 42.785156 52.289062 43.945312 C 50.746094 43.640625 50.234375 41.953125 50.808594 40.855469 L 51.0625 41.417969 Z M 51.078125 41.429688 "/>
<path style=" stroke:none;fill-rule:evenodd;fill:rgb(2.352941%,39.607843%,29.019608%);fill-opacity:1;" d="M 51.894531 38.3125 C 53.183594 39.039062 53.542969 39.832031 52.867188 40.945312 C 51.359375 40.484375 51.011719 38.757812 51.703125 37.722656 L 51.90625 38.3125 Z M 51.894531 38.3125 "/>
<path style=" stroke:none;fill-rule:evenodd;fill:rgb(2.352941%,39.607843%,29.019608%);fill-opacity:1;" d="M 53.160156 35.820312 C 54.296875 36.777344 54.5 37.609375 53.632812 38.578125 C 52.238281 37.851562 52.199219 36.085938 53.070312 35.207031 Z M 53.160156 35.820312 "/>
<path style=" stroke:none;fill-rule:evenodd;fill:rgb(2.352941%,39.607843%,29.019608%);fill-opacity:1;" d="M 55.230469 33.199219 C 55.996094 34.464844 55.917969 35.332031 54.78125 35.960938 C 53.695312 34.824219 54.234375 33.148438 55.34375 32.585938 Z M 55.230469 33.199219 "/>
<path style=" stroke:none;fill-rule:evenodd;fill:rgb(2.352941%,39.607843%,29.019608%);fill-opacity:1;" d="M 58.042969 31.5625 C 58.324219 33.019531 57.953125 33.800781 56.671875 34.003906 C 56.046875 32.5625 57.121094 31.179688 58.359375 31.027344 Z M 58.042969 31.5625 "/>
<path style=" stroke:none;fill-rule:evenodd;fill:rgb(2.352941%,39.607843%,29.019608%);fill-opacity:1;" d="M 45.132812 38.746094 C 45.542969 37.597656 45.109375 36.828125 43.855469 36.433594 L 44.085938 36.789062 C 43.84375 37.902344 44.203125 38.554688 45.132812 38.746094 Z M 45.132812 38.746094 "/>
<path style=" stroke:none;fill-rule:evenodd;fill:rgb(2.352941%,39.607843%,29.019608%);fill-opacity:1;" d="M 46.515625 40.074219 C 47.269531 39.128906 47.128906 38.261719 46.066406 37.46875 L 46.167969 37.875 C 45.582031 38.847656 45.695312 39.578125 46.515625 40.074219 Z M 46.515625 40.074219 "/>
<path style=" stroke:none;fill-rule:evenodd;fill:rgb(2.352941%,39.607843%,29.019608%);fill-opacity:1;" d="M 47.523438 42.082031 C 48.46875 41.316406 48.507812 40.433594 47.640625 39.449219 L 47.652344 39.871094 C 46.871094 40.6875 46.832031 41.429688 47.523438 42.09375 Z M 47.523438 42.082031 "/>
<path style=" stroke:none;fill-rule:evenodd;fill:rgb(2.352941%,39.607843%,29.019608%);fill-opacity:1;" d="M 47.996094 43.933594 C 49.097656 43.4375 49.363281 42.59375 48.777344 41.417969 L 48.675781 41.824219 C 47.714844 42.425781 47.484375 43.128906 47.984375 43.933594 Z M 47.996094 43.933594 "/>
<path style=" stroke:none;fill-rule:evenodd;fill:rgb(2.352941%,39.607843%,29.019608%);fill-opacity:1;" d="M 48.417969 46.121094 C 49.582031 45.773438 49.953125 44.96875 49.542969 43.730469 L 49.390625 44.113281 C 48.355469 44.574219 48.035156 45.238281 48.417969 46.121094 Z M 48.417969 46.121094 "/>
<path style=" stroke:none;fill-rule:evenodd;fill:rgb(2.352941%,39.607843%,29.019608%);fill-opacity:1;" d="M 48.507812 48.355469 C 49.710938 48.136719 50.167969 47.398438 49.886719 46.105469 L 49.695312 46.476562 C 48.621094 46.820312 48.226562 47.449219 48.507812 48.355469 Z M 48.507812 48.355469 "/>
<path style=" stroke:none;fill-rule:evenodd;fill:rgb(2.352941%,39.607843%,29.019608%);fill-opacity:1;" d="M 47.269531 48.304688 C 46.054688 48.417969 45.414062 47.820312 45.339844 46.503906 L 45.621094 46.808594 C 46.757812 46.847656 47.292969 47.347656 47.269531 48.304688 Z M 47.269531 48.304688 "/>
<path style=" stroke:none;fill-rule:evenodd;fill:rgb(2.352941%,39.607843%,29.019608%);fill-opacity:1;" d="M 47.179688 46.207031 C 46.015625 46.542969 45.261719 46.066406 44.957031 44.789062 L 45.289062 45.03125 C 46.414062 44.867188 47.039062 45.25 47.179688 46.207031 Z M 47.179688 46.207031 "/>
<path style=" stroke:none;fill-rule:evenodd;fill:rgb(2.352941%,39.607843%,29.019608%);fill-opacity:1;" d="M 46.960938 44.136719 C 45.835938 44.613281 45.042969 44.226562 44.585938 43 L 44.941406 43.207031 C 46.027344 42.898438 46.707031 43.21875 46.960938 44.136719 Z M 46.960938 44.136719 "/>
<path style=" stroke:none;fill-rule:evenodd;fill:rgb(2.352941%,39.607843%,29.019608%);fill-opacity:1;" d="M 46.527344 42.453125 C 45.402344 42.925781 44.609375 42.542969 44.148438 41.316406 L 44.507812 41.519531 C 45.59375 41.210938 46.273438 41.53125 46.527344 42.453125 Z M 46.527344 42.453125 "/>
<path style=" stroke:none;fill-rule:evenodd;fill:rgb(2.352941%,39.607843%,29.019608%);fill-opacity:1;" d="M 45.800781 40.472656 C 44.917969 41.300781 44.035156 41.226562 43.167969 40.242188 L 43.574219 40.304688 C 44.496094 39.640625 45.222656 39.691406 45.785156 40.472656 Z M 45.800781 40.472656 "/>
<path style=" stroke:none;fill-rule:evenodd;fill:rgb(2.352941%,39.607843%,29.019608%);fill-opacity:1;" d="M 44.496094 39.230469 C 43.691406 40.140625 42.808594 40.152344 41.851562 39.257812 L 42.273438 39.28125 C 43.117188 38.527344 43.855469 38.515625 44.496094 39.230469 Z M 44.496094 39.230469 "/>
<path style=" stroke:none;fill-rule:evenodd;fill:rgb(58.823529%,85.882353%,19.607843%);fill-opacity:1;" d="M 59.484375 37.25 C 61.402344 40.558594 61.363281 44.664062 59.382812 47.933594 L 61.707031 48.523438 C 62.285156 47.359375 62.667969 46.144531 62.882812 44.90625 C 64.316406 45.070312 66.335938 44.675781 68.929688 43.703125 C 66.371094 43.5 64.417969 43 63.074219 42.195312 C 63.023438 40.765625 62.757812 39.332031 62.246094 37.964844 C 64.035156 37.175781 65.65625 35.84375 67.101562 33.964844 C 65.953125 34.734375 64.148438 35.257812 61.707031 35.527344 C 60.890625 36.496094 60.738281 36.597656 59.484375 37.25 Z M 59.484375 37.25 "/>
<g clip-path="url(#clip2)" clip-rule="nonzero">
<path style=" stroke:none;fill-rule:evenodd;fill:rgb(58.823529%,85.882353%,19.607843%);fill-opacity:1;" d="M 42.285156 50.246094 C 38.667969 46.566406 38.144531 40.839844 41.007812 36.5625 C 43.882812 32.265625 49.363281 30.582031 54.144531 32.511719 C 54.847656 31.742188 55.410156 31.167969 55.832031 30.785156 C 54.71875 30.246094 53.582031 29.890625 52.40625 29.671875 C 52.417969 27.910156 51.972656 25.902344 51.089844 23.652344 C 50.808594 26.582031 50.359375 28.511719 49.746094 29.46875 C 48.316406 29.507812 46.910156 29.773438 45.570312 30.273438 C 44.46875 27.933594 43.152344 26.324219 41.632812 25.429688 C 43.0625 28.792969 43.601562 30.785156 43.21875 31.410156 C 42.066406 32.113281 41.007812 33.007812 40.097656 34.082031 C 38.167969 32.777344 36.226562 32.074219 34.246094 31.972656 C 36.574219 33.519531 38.015625 34.976562 38.554688 36.304688 C 37.875 37.53125 37.414062 38.847656 37.160156 40.203125 C 34.757812 40.085938 32.777344 40.421875 31.207031 41.226562 C 33.902344 41.492188 35.820312 42.015625 36.941406 42.785156 C 36.957031 44.125 37.171875 45.46875 37.609375 46.757812 C 35.90625 47.703125 34.414062 49.070312 33.097656 50.847656 C 35.933594 49.59375 37.785156 49.019531 38.644531 49.109375 C 38.960938 49.683594 39.34375 50.246094 39.753906 50.769531 Z M 42.285156 50.246094 "/>
</g>
<g clip-path="url(#clip3)" clip-rule="nonzero">
<path style=" stroke:none;fill-rule:evenodd;fill:rgb(2.352941%,39.607843%,29.019608%);fill-opacity:1;" d="M 52.570312 49.148438 C 51.167969 49.378906 49.746094 49.710938 48.253906 50.054688 C 48.125 43.179688 46.695312 39.4375 44.046875 38.402344 C 43.640625 37.199219 42.859375 36.738281 41.734375 37.019531 C 42.132812 38.015625 42.859375 38.527344 43.921875 38.578125 C 47.511719 39.753906 47.703125 48.355469 47.535156 50.222656 C 42.847656 51.347656 37.429688 52.648438 29.875 52.367188 C 49.109375 59.398438 50.449219 49.558594 69.785156 53.363281 C 63.113281 48.917969 58.359375 48.332031 53.492188 48.996094 C 53.222656 40.714844 54.820312 35.652344 58.285156 33.824219 C 59.585938 33.863281 60.570312 33.1875 61.234375 31.808594 C 59.753906 31.476562 58.730469 32.074219 58.15625 33.609375 C 53.773438 35.792969 52.75 40.753906 52.597656 49.136719 Z M 52.570312 49.148438 "/>
</g>
<path style=" stroke:none;fill-rule:evenodd;fill:rgb(2.352941%,39.607843%,29.019608%);fill-opacity:1;" d="M 66.652344 56.011719 C 56.902344 49.941406 53.273438 56.636719 41.03125 56.328125 C 53.121094 60.648438 55.816406 53.773438 66.652344 56.011719 Z M 66.652344 56.011719 "/>
<path style=" stroke:none;fill-rule:nonzero;fill:rgb(2.352941%,39.607843%,29.019608%);fill-opacity:1;" d="M 27.144531 65.613281 L 27.144531 61.277344 L 26.582031 61.203125 L 26.582031 60.609375 L 30.738281 60.609375 L 30.847656 61.871094 L 30.210938 61.878906 L 29.953125 61.320312 L 28.429688 61.238281 L 28.429688 63.140625 L 29.476562 63.09375 L 29.714844 62.539062 L 30.253906 62.539062 L 30.253906 64.386719 L 29.65625 64.386719 L 29.492188 63.792969 L 28.4375 63.777344 L 28.4375 65.558594 L 29.59375 65.65625 L 29.59375 66.234375 L 26.605469 66.234375 L 26.605469 65.730469 Z M 27.144531 65.613281 "/>
<path style=" stroke:none;fill-rule:nonzero;fill:rgb(2.352941%,39.607843%,29.019608%);fill-opacity:1;" d="M 33.371094 62.0625 C 33.9375 62.0625 34.355469 62.183594 34.628906 62.417969 C 34.898438 62.652344 35.035156 63.03125 35.035156 63.554688 L 35.035156 65.746094 L 35.511719 65.746094 L 35.511719 66.132812 C 35.410156 66.199219 35.273438 66.253906 35.09375 66.285156 C 34.921875 66.320312 34.75 66.339844 34.574219 66.339844 C 34.390625 66.339844 34.242188 66.304688 34.121094 66.234375 C 34.003906 66.160156 33.9375 66.058594 33.921875 65.921875 C 33.628906 66.199219 33.277344 66.339844 32.867188 66.339844 C 32.414062 66.339844 32.042969 66.238281 31.761719 66.035156 C 31.480469 65.828125 31.339844 65.539062 31.339844 65.171875 C 31.339844 64.847656 31.453125 64.574219 31.679688 64.351562 C 31.910156 64.128906 32.207031 63.960938 32.570312 63.851562 C 32.941406 63.742188 33.335938 63.6875 33.75 63.6875 L 33.75 63.644531 C 33.746094 63.316406 33.6875 63.089844 33.574219 62.953125 C 33.464844 62.820312 33.265625 62.753906 32.980469 62.753906 C 32.773438 62.753906 32.550781 62.785156 32.320312 62.84375 C 32.089844 62.902344 31.914062 62.976562 31.785156 63.066406 L 31.539062 62.507812 C 31.71875 62.367188 31.984375 62.257812 32.332031 62.183594 C 32.691406 62.101562 33.035156 62.0625 33.371094 62.0625 M 33.75 64.246094 C 33.429688 64.246094 33.164062 64.308594 32.949219 64.4375 C 32.742188 64.566406 32.636719 64.761719 32.636719 65.019531 C 32.636719 65.21875 32.6875 65.375 32.785156 65.484375 C 32.890625 65.589844 33.042969 65.640625 33.238281 65.640625 C 33.457031 65.640625 33.628906 65.589844 33.75 65.484375 Z M 33.75 64.246094 "/>
<path style=" stroke:none;fill-rule:nonzero;fill:rgb(2.352941%,39.607843%,29.019608%);fill-opacity:1;" d="M 36.492188 65.039062 L 36.71875 65.441406 C 36.863281 65.585938 36.984375 65.6875 37.085938 65.746094 C 37.183594 65.804688 37.3125 65.835938 37.46875 65.835938 C 37.664062 65.835938 37.808594 65.792969 37.90625 65.714844 C 38.011719 65.632812 38.0625 65.519531 38.0625 65.382812 C 38.058594 65.257812 37.976562 65.144531 37.820312 65.046875 C 37.664062 64.949219 37.433594 64.828125 37.121094 64.691406 C 36.695312 64.492188 36.375 64.28125 36.15625 64.058594 C 35.9375 63.835938 35.828125 63.558594 35.828125 63.230469 C 35.835938 62.976562 35.921875 62.765625 36.097656 62.589844 C 36.269531 62.414062 36.488281 62.28125 36.75 62.195312 C 37.011719 62.109375 37.285156 62.0625 37.566406 62.0625 C 37.789062 62.054688 38.046875 62.070312 38.339844 62.117188 C 38.628906 62.15625 38.851562 62.207031 39.007812 62.269531 L 39.007812 63.265625 L 38.367188 63.265625 L 38.167969 62.8125 C 38.097656 62.730469 38.015625 62.660156 37.921875 62.605469 C 37.828125 62.550781 37.730469 62.523438 37.632812 62.523438 C 37.480469 62.523438 37.351562 62.554688 37.246094 62.621094 C 37.148438 62.679688 37.097656 62.757812 37.097656 62.859375 C 37.097656 62.988281 37.136719 63.097656 37.210938 63.191406 C 37.289062 63.285156 37.394531 63.371094 37.53125 63.453125 C 37.664062 63.527344 37.859375 63.621094 38.117188 63.742188 C 38.507812 63.917969 38.796875 64.101562 38.992188 64.28125 C 39.191406 64.464844 39.289062 64.710938 39.289062 65.019531 C 39.289062 65.46875 39.109375 65.800781 38.746094 66.011719 C 38.386719 66.21875 37.921875 66.324219 37.351562 66.324219 C 37.105469 66.324219 36.839844 66.292969 36.566406 66.234375 C 36.292969 66.175781 36.070312 66.097656 35.898438 65.996094 L 35.898438 65.039062 Z M 36.492188 65.039062 "/>
<path style=" stroke:none;fill-rule:nonzero;fill:rgb(2.352941%,39.607843%,29.019608%);fill-opacity:1;" d="M 41.789062 62.0625 C 42.355469 62.0625 42.773438 62.183594 43.042969 62.417969 C 43.316406 62.652344 43.453125 63.03125 43.453125 63.554688 L 43.453125 65.746094 L 43.925781 65.746094 L 43.925781 66.132812 C 43.828125 66.199219 43.691406 66.253906 43.511719 66.285156 C 43.339844 66.320312 43.164062 66.339844 42.992188 66.339844 C 42.808594 66.339844 42.660156 66.304688 42.539062 66.234375 C 42.421875 66.160156 42.355469 66.058594 42.339844 65.921875 C 42.046875 66.199219 41.695312 66.339844 41.285156 66.339844 C 40.828125 66.339844 40.460938 66.238281 40.179688 66.035156 C 39.898438 65.828125 39.757812 65.539062 39.757812 65.171875 C 39.757812 64.847656 39.871094 64.574219 40.097656 64.351562 C 40.324219 64.128906 40.621094 63.960938 40.988281 63.851562 C 41.359375 63.742188 41.753906 63.6875 42.167969 63.6875 L 42.167969 63.644531 C 42.164062 63.316406 42.105469 63.089844 41.992188 62.953125 C 41.882812 62.820312 41.683594 62.753906 41.398438 62.753906 C 41.1875 62.753906 40.96875 62.785156 40.734375 62.84375 C 40.507812 62.902344 40.332031 62.976562 40.203125 63.066406 L 39.957031 62.507812 C 40.132812 62.367188 40.398438 62.257812 40.75 62.183594 C 41.105469 62.101562 41.453125 62.0625 41.789062 62.0625 M 42.167969 64.246094 C 41.847656 64.246094 41.578125 64.308594 41.367188 64.4375 C 41.160156 64.566406 41.054688 64.761719 41.054688 65.019531 C 41.054688 65.21875 41.105469 65.375 41.203125 65.484375 C 41.308594 65.589844 41.457031 65.640625 41.65625 65.640625 C 41.875 65.640625 42.042969 65.589844 42.167969 65.484375 Z M 42.167969 64.246094 "/>
<path style=" stroke:none;fill-rule:nonzero;fill:rgb(2.352941%,39.607843%,29.019608%);fill-opacity:1;" d="M 44.632812 65.648438 L 44.632812 61.21875 L 44.144531 61.007812 L 44.144531 60.503906 L 45.703125 60.328125 L 45.917969 60.394531 L 45.917969 65.632812 L 46.546875 65.746094 L 46.546875 66.234375 L 44.203125 66.234375 L 44.203125 65.746094 Z M 44.632812 65.648438 "/>
<path style=" stroke:none;fill-rule:nonzero;fill:rgb(2.352941%,39.607843%,29.019608%);fill-opacity:1;" d="M 50.667969 66.339844 C 50.359375 66.339844 50.015625 66.308594 49.628906 66.242188 C 49.246094 66.183594 48.960938 66.105469 48.773438 66.003906 L 48.773438 64.535156 L 49.316406 64.535156 L 49.65625 65.410156 C 49.765625 65.558594 49.898438 65.660156 50.058594 65.707031 C 50.222656 65.753906 50.425781 65.773438 50.675781 65.773438 C 50.9375 65.773438 51.144531 65.707031 51.296875 65.566406 C 51.457031 65.429688 51.535156 65.230469 51.535156 64.972656 C 51.535156 64.671875 51.257812 64.375 50.703125 64.082031 C 50.214844 63.820312 49.84375 63.609375 49.589844 63.453125 C 49.34375 63.289062 49.140625 63.097656 48.980469 62.878906 C 48.828125 62.664062 48.753906 62.402344 48.753906 62.101562 C 48.753906 61.792969 48.839844 61.523438 49.019531 61.292969 C 49.199219 61.054688 49.433594 60.875 49.730469 60.75 C 50.035156 60.621094 50.355469 60.558594 50.695312 60.558594 C 50.960938 60.558594 51.28125 60.582031 51.660156 60.632812 C 52.042969 60.679688 52.308594 60.742188 52.457031 60.816406 L 52.457031 62.019531 L 51.855469 62.019531 L 51.519531 61.253906 C 51.460938 61.207031 51.355469 61.164062 51.203125 61.136719 C 51.054688 61.101562 50.925781 61.082031 50.824219 61.082031 C 50.582031 61.082031 50.378906 61.136719 50.214844 61.238281 C 50.054688 61.339844 49.976562 61.484375 49.976562 61.675781 C 49.976562 61.871094 50.035156 62.042969 50.148438 62.195312 C 50.261719 62.34375 50.414062 62.484375 50.609375 62.613281 C 50.804688 62.738281 51.085938 62.894531 51.453125 63.089844 C 51.894531 63.316406 52.234375 63.554688 52.472656 63.808594 C 52.707031 64.058594 52.828125 64.359375 52.828125 64.707031 C 52.828125 65.046875 52.730469 65.34375 52.539062 65.589844 C 52.34375 65.835938 52.085938 66.023438 51.757812 66.152344 C 51.429688 66.277344 51.066406 66.339844 50.667969 66.339844 Z M 50.667969 66.339844 "/>
<path style=" stroke:none;fill-rule:nonzero;fill:rgb(2.352941%,39.607843%,29.019608%);fill-opacity:1;" d="M 55.335938 62.0625 C 55.898438 62.0625 56.316406 62.183594 56.589844 62.417969 C 56.863281 62.652344 57 63.03125 57 63.554688 L 57 65.746094 L 57.472656 65.746094 L 57.472656 66.132812 C 57.375 66.199219 57.234375 66.253906 57.058594 66.285156 C 56.882812 66.320312 56.710938 66.339844 56.539062 66.339844 C 56.355469 66.339844 56.203125 66.304688 56.085938 66.234375 C 55.964844 66.160156 55.898438 66.058594 55.886719 65.921875 C 55.59375 66.199219 55.242188 66.339844 54.832031 66.339844 C 54.375 66.339844 54.007812 66.238281 53.726562 66.035156 C 53.441406 65.828125 53.300781 65.539062 53.300781 65.171875 C 53.300781 64.847656 53.414062 64.574219 53.644531 64.351562 C 53.871094 64.128906 54.167969 63.960938 54.535156 63.851562 C 54.90625 63.742188 55.296875 63.6875 55.714844 63.6875 L 55.714844 63.644531 C 55.710938 63.316406 55.648438 63.089844 55.535156 62.953125 C 55.425781 62.820312 55.230469 62.753906 54.941406 62.753906 C 54.734375 62.753906 54.515625 62.785156 54.28125 62.84375 C 54.054688 62.902344 53.875 62.976562 53.746094 63.066406 L 53.503906 62.507812 C 53.679688 62.367188 53.945312 62.257812 54.296875 62.183594 C 54.652344 62.101562 55 62.0625 55.335938 62.0625 M 55.714844 64.246094 C 55.394531 64.246094 55.125 64.308594 54.914062 64.4375 C 54.703125 64.566406 54.601562 64.761719 54.601562 65.019531 C 54.601562 65.21875 54.652344 65.375 54.75 65.484375 C 54.851562 65.589844 55.003906 65.640625 55.203125 65.640625 C 55.417969 65.640625 55.589844 65.589844 55.714844 65.484375 Z M 55.714844 64.246094 "/>
<path style=" stroke:none;fill-rule:nonzero;fill:rgb(2.352941%,39.607843%,29.019608%);fill-opacity:1;" d="M 58.296875 65.648438 L 58.296875 63.265625 L 57.808594 62.917969 L 57.808594 62.464844 L 59.152344 62.0625 L 59.410156 62.128906 L 59.410156 62.835938 C 59.445312 62.703125 59.519531 62.574219 59.632812 62.457031 C 59.753906 62.339844 59.886719 62.246094 60.035156 62.175781 C 60.183594 62.101562 60.320312 62.0625 60.449219 62.0625 C 60.652344 62.0625 60.785156 62.078125 60.84375 62.109375 L 60.84375 63.25 C 60.789062 63.195312 60.695312 63.15625 60.5625 63.125 C 60.433594 63.09375 60.320312 63.082031 60.226562 63.082031 C 60.089844 63.082031 59.957031 63.09375 59.832031 63.125 C 59.714844 63.148438 59.628906 63.179688 59.582031 63.214844 L 59.582031 65.617188 L 60.425781 65.746094 L 60.425781 66.234375 L 57.851562 66.234375 L 57.851562 65.746094 Z M 58.296875 65.648438 "/>
<path style=" stroke:none;fill-rule:nonzero;fill:rgb(2.352941%,39.607843%,29.019608%);fill-opacity:1;" d="M 63.285156 62.0625 C 63.847656 62.0625 64.265625 62.183594 64.539062 62.417969 C 64.8125 62.652344 64.949219 63.03125 64.949219 63.554688 L 64.949219 65.746094 L 65.421875 65.746094 L 65.421875 66.132812 C 65.324219 66.199219 65.183594 66.253906 65.007812 66.285156 C 64.832031 66.320312 64.660156 66.339844 64.488281 66.339844 C 64.304688 66.339844 64.152344 66.304688 64.035156 66.234375 C 63.914062 66.160156 63.847656 66.058594 63.835938 65.921875 C 63.542969 66.199219 63.191406 66.339844 62.78125 66.339844 C 62.324219 66.339844 61.957031 66.238281 61.675781 66.035156 C 61.390625 65.828125 61.25 65.539062 61.25 65.171875 C 61.25 64.847656 61.363281 64.574219 61.59375 64.351562 C 61.820312 64.128906 62.117188 63.960938 62.484375 63.851562 C 62.855469 63.742188 63.246094 63.6875 63.664062 63.6875 L 63.664062 63.644531 C 63.660156 63.316406 63.597656 63.089844 63.484375 62.953125 C 63.375 62.820312 63.179688 62.753906 62.890625 62.753906 C 62.683594 62.753906 62.464844 62.785156 62.230469 62.84375 C 62.003906 62.902344 61.824219 62.976562 61.695312 63.066406 L 61.453125 62.507812 C 61.628906 62.367188 61.894531 62.257812 62.246094 62.183594 C 62.601562 62.101562 62.949219 62.0625 63.285156 62.0625 M 63.664062 64.246094 C 63.34375 64.246094 63.074219 64.308594 62.863281 64.4375 C 62.652344 64.566406 62.550781 64.761719 62.550781 65.019531 C 62.550781 65.21875 62.601562 65.375 62.699219 65.484375 C 62.800781 65.589844 62.953125 65.640625 63.152344 65.640625 C 63.371094 65.640625 63.539062 65.589844 63.664062 65.484375 Z M 63.664062 64.246094 "/>
<path style=" stroke:none;fill-rule:nonzero;fill:rgb(2.352941%,39.607843%,29.019608%);fill-opacity:1;" d="M 67.292969 62.183594 L 68.53125 62.183594 L 68.53125 62.828125 L 67.34375 62.828125 L 67.34375 64.222656 C 67.34375 64.550781 67.351562 64.800781 67.367188 64.980469 C 67.382812 65.160156 67.421875 65.304688 67.484375 65.417969 C 67.550781 65.53125 67.652344 65.589844 67.789062 65.589844 C 67.878906 65.589844 67.992188 65.578125 68.125 65.550781 C 68.261719 65.523438 68.363281 65.492188 68.421875 65.464844 L 68.613281 65.871094 C 68.464844 66.019531 68.253906 66.132812 67.976562 66.210938 C 67.703125 66.285156 67.425781 66.324219 67.144531 66.324219 C 66.871094 66.324219 66.660156 66.277344 66.507812 66.183594 C 66.359375 66.089844 66.25 65.945312 66.1875 65.753906 C 66.128906 65.558594 66.097656 65.304688 66.097656 64.988281 L 66.097656 62.828125 L 65.550781 62.828125 L 65.550781 62.417969 C 65.867188 62.371094 66.097656 62.269531 66.246094 62.121094 C 66.335938 62.035156 66.410156 61.921875 66.46875 61.78125 C 66.535156 61.644531 66.605469 61.453125 66.683594 61.210938 L 67.292969 61.210938 Z M 67.292969 62.183594 "/>
<path style=" stroke:none;fill-rule:nonzero;fill:rgb(2.352941%,39.607843%,29.019608%);fill-opacity:1;" d="M 69.527344 65.640625 L 69.527344 61.21875 L 69.039062 61.007812 L 69.039062 60.503906 L 70.601562 60.328125 L 70.8125 60.394531 L 70.8125 62.175781 L 70.738281 62.546875 C 71.09375 62.222656 71.542969 62.0625 72.082031 62.0625 C 72.421875 62.0625 72.679688 62.140625 72.851562 62.292969 C 73.03125 62.441406 73.148438 62.652344 73.203125 62.925781 C 73.261719 63.191406 73.289062 63.539062 73.28125 63.964844 L 73.28125 65.640625 L 73.78125 65.746094 L 73.78125 66.234375 L 71.480469 66.226562 L 71.480469 65.746094 L 72.007812 65.640625 L 72.007812 64.140625 C 72.007812 63.835938 71.992188 63.59375 71.960938 63.421875 C 71.9375 63.25 71.875 63.113281 71.777344 63.015625 C 71.683594 62.910156 71.535156 62.859375 71.332031 62.859375 C 71.125 62.859375 70.949219 62.914062 70.8125 63.019531 L 70.8125 65.648438 L 71.167969 65.746094 L 71.167969 66.234375 L 69.007812 66.234375 L 69.007812 65.746094 Z M 69.527344 65.640625 "/>
<path style=" stroke:none;fill-rule:nonzero;fill:rgb(2.352941%,39.607843%,29.019608%);fill-opacity:1;" d="M 75.398438 59.941406 C 75.636719 59.941406 75.820312 60.003906 75.949219 60.125 C 76.078125 60.246094 76.140625 60.410156 76.140625 60.625 C 76.140625 60.859375 76.050781 61.054688 75.875 61.210938 C 75.699219 61.359375 75.496094 61.433594 75.257812 61.433594 C 75.050781 61.433594 74.875 61.367188 74.730469 61.238281 C 74.585938 61.109375 74.515625 60.949219 74.515625 60.75 C 74.515625 60.601562 74.558594 60.464844 74.640625 60.339844 C 74.730469 60.21875 74.839844 60.121094 74.976562 60.050781 C 75.113281 59.976562 75.253906 59.941406 75.398438 59.941406 M 76.015625 62.152344 L 76.015625 65.648438 L 76.535156 65.746094 L 76.535156 66.234375 L 74.246094 66.234375 L 74.246094 65.746094 L 74.730469 65.640625 L 74.730469 63.386719 L 74.269531 62.867188 L 74.269531 62.523438 L 75.703125 62.0625 Z M 76.015625 62.152344 "/>
</g>
</defs>
<g id="surface1">
<use xlink:href="#surface5"/>
</g>
</svg>
